<svg width="118" height="18" viewBox="0 0 118 18" fill="none" xmlns="http://www.w3.org/2000/svg">
<path d="M7.92177 16.8886V9.19704L3.86173 6.84983V8.7865C3.86173 9.18221 3.54094 9.50301 3.14522 9.50301C2.7495 9.50301 2.42871 9.18221 2.42871 8.7865V6.02136L1.19691 5.30923V12.0551C1.19691 12.3633 1.27046 12.6435 1.41757 12.8957C1.56468 13.1479 1.77133 13.351 2.03752 13.5051L5.25408 15.3547V12.1284C5.25408 11.7326 5.57487 11.4118 5.97058 11.4118C6.3663 11.4118 6.68709 11.7326 6.68709 12.1284V16.1787L7.92177 16.8886Z" fill="#1D4F91"/>
<path d="M15.4872 13.5051C15.7534 13.351 15.9601 13.1479 16.1072 12.8957C16.2543 12.6435 16.3278 12.3633 16.3278 12.0551V5.30923L9.60298 9.19704V16.8886L10.8389 16.1779V10.2317C10.8389 9.83598 11.1597 9.51518 11.5555 9.51518C11.9512 9.51518 12.272 9.83598 12.272 10.2317V15.3539L13.663 14.5541V12.0105C13.663 11.6148 13.9838 11.294 14.3795 11.294C14.7752 11.294 15.096 11.6148 15.096 12.0105V13.7301L15.4872 13.5051Z" fill="#1D4F91"/>
<path fill-rule="evenodd" clip-rule="evenodd" d="M9.60298 0.538784L15.4242 3.8802L8.76238 7.74699L2.07955 3.90121L7.92177 0.538784C8.18796 0.384673 8.46816 0.307617 8.76238 0.307617C9.05659 0.307617 9.33679 0.384673 9.60298 0.538784ZM9.0728 2.7541L11.0389 3.88266C11.1087 3.92272 11.1089 4.02332 11.0393 4.06372L8.81845 5.35281C8.78613 5.37158 8.74624 5.37165 8.71384 5.35301L6.48622 4.07107C6.41636 4.03087 6.41636 3.93007 6.48621 3.88987L8.45961 2.7541C8.5567 2.69789 8.6589 2.66979 8.7662 2.66979C8.87351 2.66979 8.97571 2.69789 9.0728 2.7541Z" fill="#1D4F91"/>
<path d="M47.922 16.8886V9.19704L43.862 6.84983V8.7865C43.862 9.18221 43.5412 9.50301 43.1454 9.50301C42.7497 9.50301 42.4289 9.18221 42.4289 8.7865V6.02136L41.1971 5.30923V12.0551C41.1971 12.3633 41.2707 12.6435 41.4178 12.8957C41.5649 13.1479 41.7716 13.351 42.0377 13.5051L45.2543 15.3547V12.1284C45.2543 11.7326 45.5751 11.4118 45.9708 11.4118C46.3665 11.4118 46.6873 11.7326 46.6873 12.1284V16.1787L47.922 16.8886Z" fill="#1D4F91"/>
<path d="M55.4875 13.5051C55.7537 13.351 55.9603 13.1479 56.1074 12.8957C56.2545 12.6435 56.3281 12.3633 56.3281 12.0551V5.30923L49.6032 9.19704V16.8886L50.8392 16.1779V10.2317C50.8392 9.83598 51.16 9.51518 51.5557 9.51518C51.9514 9.51518 52.2722 9.83598 52.2722 10.2317V15.3539L53.6632 14.5541V12.0105C53.6632 11.6148 53.984 11.294 54.3798 11.294C54.7755 11.294 55.0963 11.6148 55.0963 12.0105V13.7301L55.4875 13.5051Z" fill="#1D4F91"/>
<path fill-rule="evenodd" clip-rule="evenodd" d="M49.6032 0.538784L55.4244 3.8802L48.7626 7.74699L42.0798 3.90121L47.922 0.538784C48.1882 0.384673 48.4684 0.307617 48.7626 0.307617C49.0568 0.307617 49.337 0.384673 49.6032 0.538784ZM49.073 2.7541L51.0391 3.88266C51.1089 3.92272 51.1092 4.02332 51.0396 4.06372L48.8187 5.35281C48.7864 5.37158 48.7465 5.37165 48.7141 5.35301L46.4864 4.07107C46.4166 4.03087 46.4166 3.93007 46.4864 3.88987L48.4598 2.7541C48.5569 2.69789 48.6591 2.66979 48.7664 2.66979C48.8737 2.66979 48.9759 2.69789 49.073 2.7541Z" fill="#1D4F91"/>
<path d="M87.9222 17.1962V9.50465L83.8622 7.15744V9.09411C83.8622 9.48983 83.5414 9.81062 83.1457 9.81062C82.75 9.81062 82.4292 9.48983 82.4292 9.09411V6.32898L81.1974 5.61685V12.3627C81.1974 12.6709 81.2709 12.9511 81.418 13.2033C81.5651 13.4555 81.7718 13.6587 82.038 13.8128L85.2545 15.6623V12.436C85.2545 12.0403 85.5753 11.7195 85.971 11.7195C86.3668 11.7195 86.6875 12.0403 86.6875 12.436V16.4863L87.9222 17.1962Z" fill="#1D4F91"/>
<path d="M95.4877 13.8128C95.7539 13.6587 95.9605 13.4555 96.1076 13.2033C96.2547 12.9511 96.3283 12.6709 96.3283 12.3627V5.61685L89.6034 9.50465V17.1962L90.8394 16.4855V10.5393C90.8394 10.1436 91.1602 9.8228 91.5559 9.8228C91.9516 9.8228 92.2724 10.1436 92.2724 10.5393V15.6615L93.6635 14.8617V12.3181C93.6635 11.9224 93.9843 11.6016 94.38 11.6016C94.7757 11.6016 95.0965 11.9224 95.0965 12.3181V14.0377L95.4877 13.8128Z" fill="#1D4F91"/>
<path fill-rule="evenodd" clip-rule="evenodd" d="M89.6034 0.846401L95.4246 4.18781L88.7628 8.05461L82.08 4.20883L87.9222 0.846401C88.1884 0.69229 88.4686 0.615234 88.7628 0.615234C89.057 0.615234 89.3372 0.69229 89.6034 0.846401ZM89.0733 3.06172L91.0393 4.19027C91.1091 4.23034 91.1094 4.33094 91.0398 4.37134L88.8189 5.66043C88.7866 5.67919 88.7467 5.67927 88.7143 5.66062L86.4867 4.37869C86.4168 4.33849 86.4168 4.23769 86.4867 4.19749L88.4601 3.06172C88.5572 3.00551 88.6594 2.97741 88.7667 2.97741C88.874 2.97741 88.9762 3.00551 89.0733 3.06172Z" fill="#1D4F91"/>
<path d="M27.9218 16.8886V9.19704L21.1969 5.30923V12.0551C21.1969 12.3633 21.2705 12.6435 21.4176 12.8957C21.5647 13.1479 21.7713 13.351 22.0375 13.5051L27.9218 16.8886ZM29.603 16.8886L35.4872 13.5051C35.7534 13.351 35.9601 13.1479 36.1072 12.8957C36.2543 12.6435 36.3278 12.3633 36.3278 12.0551V5.30923L29.603 9.19704V16.8886Z" fill="#1D4F91"/>
<path d="M35.4242 3.8802L29.603 0.538784C29.3368 0.384673 29.0566 0.307617 28.7624 0.307617C28.4682 0.307617 28.188 0.384673 27.9218 0.538784L22.0795 3.90121L28.7624 7.74699L35.4242 3.8802Z" fill="#1D4F91"/>
<path d="M67.922 16.8886V9.19704L61.1971 5.30923V12.0551C61.1971 12.3633 61.2707 12.6435 61.4178 12.8957C61.5649 13.1479 61.7716 13.351 62.0377 13.5051L67.922 16.8886ZM69.6032 16.8886L75.4875 13.5051C75.7537 13.351 75.9603 13.1479 76.1074 12.8957C76.2545 12.6435 76.3281 12.3633 76.3281 12.0551V5.30923L69.6032 9.19704V16.8886Z" fill="#1D4F91"/>
<path d="M75.4244 3.8802L69.6032 0.538784C69.337 0.384673 69.0568 0.307617 68.7626 0.307617C68.4684 0.307617 68.1882 0.384673 67.922 0.538784L62.0798 3.90121L68.7626 7.74699L75.4244 3.8802Z" fill="#1D4F91"/>
<path d="M107.922 17.1962V9.50466L101.197 5.61685V12.3627C101.197 12.6709 101.271 12.9511 101.418 13.2033C101.565 13.4555 101.772 13.6587 102.038 13.8128L107.922 17.1962ZM109.603 17.1962L115.488 13.8128C115.754 13.6587 115.961 13.4555 116.108 13.2033C116.255 12.9511 116.328 12.6709 116.328 12.3627V5.61685L109.603 9.50466V17.1962Z" fill="#1D4F91"/>
<path d="M115.425 4.18781L109.603 0.846401C109.337 0.69229 109.057 0.615234 108.763 0.615234C108.469 0.615234 108.188 0.69229 107.922 0.846401L102.08 4.20883L108.763 8.05461L115.425 4.18781Z" fill="#1D4F91"/>
</svg>
