<svg width="31" height="30" viewBox="0 0 31 30" fill="none" xmlns="http://www.w3.org/2000/svg">
<path d="M14.1022 29.4633V16.0448L7.0192 11.95V15.3286C7.0192 16.019 6.45955 16.5786 5.7692 16.5786C5.07884 16.5786 4.5192 16.019 4.5192 15.3286V10.5046L2.37024 9.26228V21.0309C2.37024 21.5686 2.49856 22.0575 2.75519 22.4974C3.01183 22.9374 3.37235 23.2918 3.83674 23.5606L9.44824 26.7872V21.1587C9.44824 20.4684 10.0079 19.9087 10.6982 19.9087C11.3886 19.9087 11.9482 20.4684 11.9482 21.1587V28.2247L14.1022 29.4633Z" fill="#1D4F91"/>
<path d="M27.3007 23.5606C27.7651 23.2918 28.1256 22.9374 28.3822 22.4974C28.6389 22.0575 28.7672 21.5686 28.7672 21.0309V9.26228L17.0352 16.0448V29.4633L19.1914 28.2234V17.8499C19.1914 17.1595 19.7511 16.5999 20.4414 16.5999C21.1318 16.5999 21.6914 17.1595 21.6914 17.8499V26.7859L24.1182 25.3905V20.9531C24.1182 20.2628 24.6779 19.7031 25.3682 19.7031C26.0586 19.7031 26.6182 20.2628 26.6182 20.9531V23.953L27.3007 23.5606Z" fill="#1D4F91"/>
<path fill-rule="evenodd" clip-rule="evenodd" d="M17.0352 0.939908L27.1907 6.76923L15.5687 13.5151L3.91006 6.8059L14.1022 0.939908C14.5666 0.67105 15.0554 0.536621 15.5687 0.536621C16.082 0.536621 16.5708 0.67105 17.0352 0.939908ZM16.1103 4.80468L19.5403 6.77352C19.662 6.84342 19.6624 7.01892 19.541 7.0894L15.6665 9.33831C15.6101 9.37105 15.5406 9.37118 15.484 9.33865L11.5978 7.10223C11.4759 7.03209 11.4759 6.85625 11.5978 6.78611L15.0405 4.80468C15.2099 4.70662 15.3882 4.65759 15.5754 4.65759C15.7626 4.65759 15.9409 4.70662 16.1103 4.80468Z" fill="#1D4F91"/>
</svg>
