<svg width="52" height="14" viewBox="0 0 52 14" fill="none" xmlns="http://www.w3.org/2000/svg">
<path d="M24.6236 3.88109C24.445 3.88109 24.3045 3.83776 24.2021 3.7511C24.0997 3.66443 24.0485 3.50818 24.0485 3.28234V2.20696H23.7097V1.92728H24.0485L24.0918 1.45853H24.3793V1.92728H24.9544V2.20696H24.3793V3.28234C24.3793 3.40577 24.4043 3.4898 24.4542 3.53444C24.5041 3.57646 24.592 3.59747 24.7181 3.59747H24.9229V3.88109H24.6236Z" fill="#202020"/>
<path d="M25.3748 3.88109V1.04492H25.7057V2.26211C25.7714 2.14131 25.8646 2.04808 25.9854 1.98243C26.1062 1.91415 26.2375 1.88001 26.3793 1.88001C26.6051 1.88001 26.7863 1.95092 26.9229 2.09273C27.0595 2.23191 27.1277 2.44725 27.1277 2.73874V3.88109H26.8008V2.77419C26.8008 2.36715 26.6367 2.16363 26.3084 2.16363C26.1377 2.16363 25.9946 2.22534 25.879 2.34877C25.7635 2.46957 25.7057 2.64289 25.7057 2.86873V3.88109H25.3748Z" fill="#202020"/>
<path d="M28.5075 3.92836C28.321 3.92836 28.1556 3.88634 28.0111 3.8023C27.8667 3.71564 27.7525 3.59616 27.6684 3.44384C27.587 3.29153 27.5463 3.11165 27.5463 2.90419C27.5463 2.69935 27.587 2.52078 27.6684 2.36847C27.7498 2.21353 27.8628 2.09404 28.0072 2.01001C28.1543 1.92334 28.3236 1.88001 28.5153 1.88001C28.7044 1.88001 28.8672 1.92334 29.0038 2.01001C29.143 2.09404 29.2493 2.20565 29.3229 2.34483C29.3964 2.48401 29.4332 2.6337 29.4332 2.79389C29.4332 2.82278 29.4318 2.85166 29.4292 2.88055C29.4292 2.90944 29.4292 2.94226 29.4292 2.97903H27.8733C27.8811 3.12871 27.9153 3.25345 27.9757 3.35324C28.0387 3.45041 28.1162 3.52394 28.2081 3.57383C28.3026 3.62373 28.4024 3.64868 28.5075 3.64868C28.644 3.64868 28.7583 3.61717 28.8502 3.55414C28.9421 3.49111 29.009 3.40577 29.0511 3.2981H29.378C29.3255 3.4793 29.2244 3.6303 29.0747 3.7511C28.9276 3.86927 28.7386 3.92836 28.5075 3.92836ZM28.5075 2.15969C28.3499 2.15969 28.2094 2.20827 28.086 2.30544C27.9652 2.39998 27.8956 2.53916 27.8772 2.72299H29.1062C29.0983 2.54704 29.0379 2.40917 28.925 2.30938C28.8121 2.20959 28.6729 2.15969 28.5075 2.15969Z" fill="#202020"/>
<path d="M24.9938 8.00839C24.8468 8.00839 24.7181 7.98081 24.6078 7.92566C24.4975 7.87052 24.4082 7.79305 24.3399 7.69326L24.2848 7.96112H23.8357V5.12495H24.3399V6.28699C24.403 6.20033 24.4857 6.12417 24.5881 6.05852C24.6932 5.99287 24.8284 5.96004 24.9938 5.96004C25.1777 5.96004 25.3418 6.00469 25.4862 6.09397C25.6307 6.18326 25.7449 6.30537 25.8289 6.46031C25.913 6.61525 25.955 6.7912 25.955 6.98815C25.955 7.18511 25.913 7.36106 25.8289 7.516C25.7449 7.66831 25.6307 7.78911 25.4862 7.87839C25.3418 7.96506 25.1777 8.00839 24.9938 8.00839ZM24.8875 7.5672C25.0477 7.5672 25.1803 7.51337 25.2853 7.4057C25.3904 7.29803 25.4429 7.15885 25.4429 6.98815C25.4429 6.81746 25.3904 6.67696 25.2853 6.56667C25.1803 6.45637 25.0477 6.40123 24.8875 6.40123C24.7247 6.40123 24.5907 6.45637 24.4857 6.56667C24.3833 6.67434 24.3321 6.81352 24.3321 6.98422C24.3321 7.15491 24.3833 7.29541 24.4857 7.4057C24.5907 7.51337 24.7247 7.5672 24.8875 7.5672Z" fill="#202020"/>
<path d="M27.5635 8.00839C27.4164 8.00839 27.2878 7.98081 27.1775 7.92566C27.0672 7.87052 26.9779 7.79305 26.9096 7.69326L26.8545 7.96112H26.4054V5.12495H26.9096V6.28699C26.9726 6.20033 27.0553 6.12417 27.1578 6.05852C27.2628 5.99287 27.3981 5.96004 27.5635 5.96004C27.7473 5.96004 27.9115 6.00469 28.0559 6.09397C28.2003 6.18326 28.3146 6.30537 28.3986 6.46031C28.4826 6.61525 28.5246 6.7912 28.5246 6.98815C28.5246 7.18511 28.4826 7.36106 28.3986 7.516C28.3146 7.66831 28.2003 7.78911 28.0559 7.87839C27.9115 7.96506 27.7473 8.00839 27.5635 8.00839ZM27.4571 7.5672C27.6173 7.5672 27.7499 7.51337 27.855 7.4057C27.96 7.29803 28.0126 7.15885 28.0126 6.98815C28.0126 6.81746 27.96 6.67696 27.855 6.56667C27.7499 6.45637 27.6173 6.40123 27.4571 6.40123C27.2943 6.40123 27.1604 6.45637 27.0553 6.56667C26.9529 6.67434 26.9017 6.81352 26.9017 6.98422C26.9017 7.15491 26.9529 7.29541 27.0553 7.4057C27.1604 7.51337 27.2943 7.5672 27.4571 7.5672Z" fill="#202020"/>
<path d="M29.2547 5.704C29.1628 5.704 29.0867 5.67643 29.0263 5.62128C28.9685 5.56613 28.9396 5.49654 28.9396 5.41251C28.9396 5.32847 28.9685 5.2602 29.0263 5.20767C29.0867 5.15253 29.1628 5.12495 29.2547 5.12495C29.3466 5.12495 29.4215 5.15253 29.4793 5.20767C29.5397 5.2602 29.5699 5.32847 29.5699 5.41251C29.5699 5.49654 29.5397 5.56613 29.4793 5.62128C29.4215 5.67643 29.3466 5.704 29.2547 5.704ZM28.6048 8.82772V8.39836H28.7584C28.8451 8.39836 28.9068 8.38129 28.9435 8.34715C28.9803 8.31301 28.9987 8.25524 28.9987 8.17383V6.00731H29.5029V8.17383C29.5029 8.41018 29.4425 8.57824 29.3217 8.67804C29.2035 8.77783 29.042 8.82772 28.8372 8.82772H28.6048Z" fill="#202020"/>
<path d="M30.0291 8.82772V6.00731H30.4781L30.5333 6.28699C30.5963 6.20033 30.679 6.12417 30.7814 6.05852C30.8865 5.99287 31.0217 5.96004 31.1872 5.96004C31.371 5.96004 31.5351 6.00469 31.6796 6.09397C31.824 6.18326 31.9382 6.30537 32.0223 6.46031C32.1063 6.61525 32.1483 6.7912 32.1483 6.98815C32.1483 7.18511 32.1063 7.36106 32.0223 7.516C31.9382 7.66831 31.824 7.78911 31.6796 7.87839C31.5351 7.96506 31.371 8.00839 31.1872 8.00839C31.0401 8.00839 30.9114 7.98081 30.8011 7.92566C30.6908 7.87052 30.6016 7.79305 30.5333 7.69326V8.82772H30.0291ZM31.0808 7.5672C31.241 7.5672 31.3736 7.51337 31.4787 7.4057C31.5837 7.29803 31.6362 7.15885 31.6362 6.98815C31.6362 6.81746 31.5837 6.67696 31.4787 6.56667C31.3736 6.45637 31.241 6.40123 31.0808 6.40123C30.918 6.40123 30.7841 6.45637 30.679 6.56667C30.5766 6.67434 30.5254 6.81352 30.5254 6.98422C30.5254 7.15491 30.5766 7.29541 30.679 7.4057C30.7841 7.51337 30.918 7.5672 31.0808 7.5672Z" fill="#202020"/>
<path d="M32.5987 7.96112V6.00731H33.0478L33.0951 6.37365C33.166 6.2476 33.2618 6.14781 33.3826 6.07428C33.506 5.99812 33.6505 5.96004 33.8159 5.96004V6.49183H33.6741C33.5638 6.49183 33.4653 6.5089 33.3787 6.54303C33.292 6.57717 33.2237 6.63626 33.1738 6.72029C33.1266 6.80433 33.1029 6.92119 33.1029 7.07088V7.96112H32.5987Z" fill="#202020"/>
<path d="M35.0634 8.00839C34.8743 8.00839 34.7036 7.96506 34.5513 7.87839C34.4016 7.79173 34.2822 7.67225 34.1929 7.51993C34.1062 7.365 34.0629 7.18642 34.0629 6.98422C34.0629 6.78201 34.1075 6.60475 34.1968 6.45243C34.2861 6.2975 34.4056 6.1767 34.5553 6.09004C34.7076 6.00338 34.8783 5.96004 35.0674 5.96004C35.2538 5.96004 35.4219 6.00338 35.5716 6.09004C35.7239 6.1767 35.8434 6.2975 35.93 6.45243C36.0193 6.60475 36.064 6.78201 36.064 6.98422C36.064 7.18642 36.0193 7.365 35.93 7.51993C35.8434 7.67225 35.7239 7.79173 35.5716 7.87839C35.4193 7.96506 35.2499 8.00839 35.0634 8.00839ZM35.0634 7.57114C35.1947 7.57114 35.309 7.52256 35.4061 7.4254C35.5033 7.32561 35.5519 7.17855 35.5519 6.98422C35.5519 6.78989 35.5033 6.64414 35.4061 6.54697C35.309 6.44718 35.196 6.39729 35.0674 6.39729C34.9334 6.39729 34.8179 6.44718 34.7207 6.54697C34.6262 6.64414 34.5789 6.78989 34.5789 6.98422C34.5789 7.17855 34.6262 7.32561 34.7207 7.4254C34.8179 7.52256 34.9321 7.57114 35.0634 7.57114Z" fill="#202020"/>
<path d="M36.7944 5.704C36.7025 5.704 36.6264 5.67643 36.566 5.62128C36.5082 5.56613 36.4793 5.49654 36.4793 5.41251C36.4793 5.32847 36.5082 5.2602 36.566 5.20767C36.6264 5.15253 36.7025 5.12495 36.7944 5.12495C36.8864 5.12495 36.9612 5.15253 37.019 5.20767C37.0794 5.2602 37.1096 5.32847 37.1096 5.41251C37.1096 5.49654 37.0794 5.56613 37.019 5.62128C36.9612 5.67643 36.8864 5.704 36.7944 5.704ZM36.1445 8.82772V8.39836H36.2981C36.3848 8.39836 36.4465 8.38129 36.4833 8.34715C36.52 8.31301 36.5384 8.25524 36.5384 8.17383V6.00731H37.0426V8.17383C37.0426 8.41018 36.9822 8.57824 36.8614 8.67804C36.7432 8.77783 36.5817 8.82772 36.3769 8.82772H36.1445Z" fill="#202020"/>
<path d="M38.5181 8.00839C38.3212 8.00839 38.1465 7.96637 37.9942 7.88233C37.8419 7.7983 37.7224 7.68013 37.6358 7.52781C37.5491 7.3755 37.5058 7.19955 37.5058 6.99997C37.5058 6.79776 37.5478 6.61788 37.6318 6.46031C37.7185 6.30275 37.8366 6.18064 37.9863 6.09397C38.1386 6.00469 38.3172 5.96004 38.5221 5.96004C38.7138 5.96004 38.8831 6.00206 39.0302 6.0861C39.1773 6.17013 39.2915 6.28568 39.3729 6.43274C39.4569 6.57717 39.499 6.73868 39.499 6.91725C39.499 6.94614 39.4976 6.97634 39.495 7.00785C39.495 7.03936 39.4937 7.07219 39.4911 7.10633H38.006C38.0165 7.25864 38.0691 7.37813 38.1636 7.46479C38.2608 7.55145 38.3776 7.59478 38.5142 7.59478C38.6166 7.59478 38.7019 7.57246 38.7702 7.52781C38.8411 7.48054 38.8936 7.42014 38.9278 7.34661H39.4399C39.4031 7.47004 39.3414 7.58296 39.2547 7.68538C39.1707 7.78517 39.0657 7.86395 38.9396 7.92173C38.8162 7.9795 38.6757 8.00839 38.5181 8.00839ZM38.5221 6.36971C38.3986 6.36971 38.2896 6.40517 38.1951 6.47607C38.1006 6.54435 38.0402 6.64939 38.0139 6.7912H38.9869C38.979 6.66252 38.9317 6.5601 38.8451 6.48395C38.7584 6.40779 38.6507 6.36971 38.5221 6.36971Z" fill="#202020"/>
<path d="M39.923 7.96112V5.12495H40.4272V6.79908L41.1205 6.00731H41.7193L40.9196 6.89755L41.8493 7.96112H41.219L40.4272 6.98028V7.96112H39.923Z" fill="#202020"/>
<path d="M24.7417 12.0884C24.5579 12.0884 24.3925 12.0464 24.2454 11.9624C24.0983 11.8783 23.9815 11.7602 23.8948 11.6078C23.8108 11.4529 23.7688 11.2717 23.7688 11.0642C23.7688 10.8568 23.8121 10.6769 23.8988 10.5246C23.9854 10.3696 24.1023 10.2502 24.2493 10.1661C24.399 10.0821 24.5658 10.0401 24.7496 10.0401C24.9334 10.0401 25.0989 10.0821 25.2459 10.1661C25.393 10.2502 25.5085 10.3696 25.5926 10.5246C25.6792 10.6769 25.7226 10.8568 25.7226 11.0642C25.7226 11.2717 25.6792 11.4529 25.5926 11.6078C25.5059 11.7602 25.3877 11.8783 25.2381 11.9624C25.091 12.0464 24.9256 12.0884 24.7417 12.0884ZM24.7417 11.8048C24.8547 11.8048 24.9597 11.7772 25.0569 11.7221C25.154 11.6669 25.2328 11.5842 25.2932 11.4739C25.3536 11.3636 25.3838 11.2271 25.3838 11.0642C25.3838 10.9014 25.3536 10.7649 25.2932 10.6546C25.2354 10.5443 25.158 10.4616 25.0608 10.4064C24.9636 10.3513 24.8599 10.3237 24.7496 10.3237C24.6367 10.3237 24.5316 10.3513 24.4345 10.4064C24.3373 10.4616 24.2585 10.5443 24.1981 10.6546C24.1377 10.7649 24.1075 10.9014 24.1075 11.0642C24.1075 11.2271 24.1377 11.3636 24.1981 11.4739C24.2585 11.5842 24.336 11.6669 24.4305 11.7221C24.5277 11.7772 24.6314 11.8048 24.7417 11.8048Z" fill="#202020"/>
<path d="M26.1827 12.0411V10.0873H26.482L26.5096 10.4616C26.57 10.3329 26.6619 10.2305 26.7853 10.1543C26.9088 10.0782 27.0611 10.0401 27.2423 10.0401V10.3867H27.1517C27.0361 10.3867 26.9298 10.4077 26.8326 10.4497C26.7354 10.4891 26.658 10.5574 26.6002 10.6546C26.5424 10.7517 26.5135 10.8857 26.5135 11.0564V12.0411H26.1827Z" fill="#202020"/>
<path d="M28.3396 11.4266C28.2293 11.4266 28.1282 11.4122 28.0363 11.3833L27.8393 11.5685C27.8682 11.5895 27.9036 11.6078 27.9457 11.6236C27.9903 11.6367 28.0533 11.6499 28.1347 11.663C28.2161 11.6735 28.3304 11.6853 28.4774 11.6984C28.74 11.7168 28.9278 11.7772 29.0407 11.8796C29.1536 11.9821 29.2101 12.116 29.2101 12.2814C29.2101 12.3944 29.1786 12.502 29.1156 12.6044C29.0552 12.7069 28.9606 12.7909 28.832 12.8565C28.7059 12.9222 28.5431 12.955 28.3435 12.955C28.1676 12.955 28.0113 12.9314 27.8747 12.8841C27.7382 12.8395 27.6318 12.7699 27.5557 12.6753C27.4795 12.5834 27.4414 12.4666 27.4414 12.3248C27.4414 12.2512 27.4611 12.1711 27.5005 12.0845C27.5399 12.0004 27.6135 11.9203 27.7211 11.8442C27.6633 11.8206 27.6135 11.7956 27.5714 11.7693C27.532 11.7405 27.4953 11.7089 27.4611 11.6748V11.5842L27.796 11.2533C27.641 11.122 27.5636 10.9487 27.5636 10.7334C27.5636 10.6047 27.5938 10.4878 27.6542 10.3828C27.7146 10.2777 27.8025 10.195 27.9181 10.1346C28.0336 10.0716 28.1741 10.0401 28.3396 10.0401C28.4525 10.0401 28.5549 10.0558 28.6468 10.0873H29.3677V10.3355L29.0013 10.3513C29.0775 10.4616 29.1156 10.5889 29.1156 10.7334C29.1156 10.862 29.0841 10.9789 29.021 11.0839C28.9606 11.189 28.8727 11.273 28.7571 11.336C28.6442 11.3964 28.505 11.4266 28.3396 11.4266ZM28.3396 11.1548C28.4787 11.1548 28.589 11.1194 28.6704 11.0485C28.7545 10.975 28.7965 10.8699 28.7965 10.7334C28.7965 10.5994 28.7545 10.497 28.6704 10.4261C28.589 10.3526 28.4787 10.3158 28.3396 10.3158C28.1978 10.3158 28.0848 10.3526 28.0008 10.4261C27.9194 10.497 27.8787 10.5994 27.8787 10.7334C27.8787 10.8699 27.9194 10.975 28.0008 11.0485C28.0848 11.1194 28.1978 11.1548 28.3396 11.1548ZM27.7645 12.2933C27.7645 12.4246 27.8196 12.5217 27.9299 12.5847C28.0402 12.6504 28.1781 12.6832 28.3435 12.6832C28.5063 12.6832 28.6363 12.6478 28.7335 12.5769C28.8333 12.506 28.8832 12.4114 28.8832 12.2933C28.8832 12.2092 28.849 12.1357 28.7807 12.0727C28.7125 12.0123 28.5864 11.9768 28.4026 11.9663C28.2582 11.9558 28.1334 11.9427 28.0284 11.9269C27.9207 11.9847 27.8498 12.0464 27.8157 12.1121C27.7815 12.1803 27.7645 12.2407 27.7645 12.2933Z" fill="#202020"/>
<path d="M30.3909 12.0884C30.2281 12.0884 30.0928 12.0608 29.9852 12.0057C29.8775 11.9505 29.7974 11.877 29.7449 11.7851C29.6924 11.6932 29.6661 11.5934 29.6661 11.4857C29.6661 11.2861 29.7422 11.1325 29.8946 11.0249C30.0469 10.9172 30.2543 10.8634 30.5169 10.8634H31.0448V10.8397C31.0448 10.669 31.0001 10.5403 30.9109 10.4537C30.8216 10.3644 30.7021 10.3198 30.5524 10.3198C30.4237 10.3198 30.3121 10.3526 30.2176 10.4182C30.1257 10.4813 30.0679 10.5745 30.0442 10.6979H29.7055C29.7186 10.5561 29.7659 10.4366 29.8473 10.3394C29.9313 10.2423 30.0351 10.1688 30.1585 10.1189C30.2819 10.0663 30.4132 10.0401 30.5524 10.0401C30.8255 10.0401 31.0303 10.1136 31.1669 10.2607C31.3061 10.4051 31.3757 10.5981 31.3757 10.8397V12.0411H31.0802L31.0605 11.6906C31.0054 11.8009 30.924 11.8954 30.8163 11.9742C30.7113 12.0503 30.5695 12.0884 30.3909 12.0884ZM30.4421 11.8087C30.5681 11.8087 30.6758 11.7759 30.7651 11.7103C30.857 11.6446 30.9266 11.5593 30.9739 11.4542C31.0211 11.3492 31.0448 11.2389 31.0448 11.1233V11.1194H30.5445C30.3502 11.1194 30.2123 11.1535 30.1309 11.2218C30.0521 11.2875 30.0127 11.3702 30.0127 11.47C30.0127 11.5724 30.0495 11.6551 30.123 11.7181C30.1992 11.7785 30.3055 11.8087 30.4421 11.8087Z" fill="#202020"/>
<path d="M31.8721 12.0411V10.0873H32.1714L32.1911 10.4379C32.2542 10.3145 32.3448 10.2173 32.4629 10.1464C32.5811 10.0755 32.715 10.0401 32.8647 10.0401C33.0958 10.0401 33.2796 10.111 33.4162 10.2528C33.5554 10.392 33.625 10.6073 33.625 10.8988V12.0411H33.2941V10.9343C33.2941 10.5272 33.126 10.3237 32.7899 10.3237C32.6218 10.3237 32.4813 10.3854 32.3684 10.5088C32.2581 10.6296 32.2029 10.803 32.2029 11.0288V12.0411H31.8721Z" fill="#202020"/>
<path d="M34.3272 9.65404C34.2615 9.65404 34.2064 9.63303 34.1617 9.59102C34.1197 9.54637 34.0987 9.49123 34.0987 9.42557C34.0987 9.36255 34.1197 9.31003 34.1617 9.26801C34.2064 9.22599 34.2615 9.20498 34.3272 9.20498C34.3902 9.20498 34.444 9.22599 34.4887 9.26801C34.5333 9.31003 34.5556 9.36255 34.5556 9.42557C34.5556 9.49123 34.5333 9.54637 34.4887 9.59102C34.444 9.63303 34.3902 9.65404 34.3272 9.65404ZM34.1617 12.0411V10.0873H34.4926V12.0411H34.1617Z" fill="#202020"/>
<path d="M34.9348 12.0411V11.7693L36.022 10.3631H34.9545V10.0873H36.3923V10.3591L35.3051 11.7654H36.412V12.0411H34.9348Z" fill="#202020"/>
<path d="M37.4998 12.0884C37.3369 12.0884 37.2017 12.0608 37.094 12.0057C36.9864 11.9505 36.9063 11.877 36.8537 11.7851C36.8012 11.6932 36.775 11.5934 36.775 11.4857C36.775 11.2861 36.8511 11.1325 37.0034 11.0249C37.1557 10.9172 37.3632 10.8634 37.6258 10.8634H38.1537V10.8397C38.1537 10.669 38.109 10.5403 38.0197 10.4537C37.9304 10.3644 37.8109 10.3198 37.6613 10.3198C37.5326 10.3198 37.421 10.3526 37.3264 10.4182C37.2345 10.4813 37.1768 10.5745 37.1531 10.6979H36.8144C36.8275 10.5561 36.8748 10.4366 36.9562 10.3394C37.0402 10.2423 37.1439 10.1688 37.2674 10.1189C37.3908 10.0663 37.5221 10.0401 37.6613 10.0401C37.9344 10.0401 38.1392 10.1136 38.2758 10.2607C38.4149 10.4051 38.4845 10.5981 38.4845 10.8397V12.0411H38.1891L38.1694 11.6906C38.1143 11.8009 38.0329 11.8954 37.9252 11.9742C37.8201 12.0503 37.6783 12.0884 37.4998 12.0884ZM37.551 11.8087C37.677 11.8087 37.7847 11.7759 37.874 11.7103C37.9659 11.6446 38.0355 11.5593 38.0827 11.4542C38.13 11.3492 38.1537 11.2389 38.1537 11.1233V11.1194H37.6534C37.4591 11.1194 37.3212 11.1535 37.2398 11.2218C37.161 11.2875 37.1216 11.3702 37.1216 11.47C37.1216 11.5724 37.1584 11.6551 37.2319 11.7181C37.3081 11.7785 37.4144 11.8087 37.551 11.8087Z" fill="#202020"/>
<path d="M39.6991 12.0411C39.5206 12.0411 39.3801 11.9978 39.2777 11.9112C39.1752 11.8245 39.124 11.6682 39.124 11.4424V10.367H38.7853V10.0873H39.124L39.1674 9.61859H39.4549V10.0873H40.03V10.367H39.4549V11.4424C39.4549 11.5658 39.4799 11.6499 39.5298 11.6945C39.5797 11.7365 39.6676 11.7575 39.7937 11.7575H39.9985V12.0411H39.6991Z" fill="#202020"/>
<path d="M40.6513 9.65404C40.5856 9.65404 40.5305 9.63303 40.4859 9.59102C40.4438 9.54637 40.4228 9.49123 40.4228 9.42557C40.4228 9.36255 40.4438 9.31003 40.4859 9.26801C40.5305 9.22599 40.5856 9.20498 40.6513 9.20498C40.7143 9.20498 40.7682 9.22599 40.8128 9.26801C40.8574 9.31003 40.8798 9.36255 40.8798 9.42557C40.8798 9.49123 40.8574 9.54637 40.8128 9.59102C40.7682 9.63303 40.7143 9.65404 40.6513 9.65404ZM40.4859 12.0411V10.0873H40.8167V12.0411H40.4859Z" fill="#202020"/>
<path d="M42.2831 12.0884C42.0993 12.0884 41.9338 12.0464 41.7868 11.9624C41.6397 11.8783 41.5229 11.7602 41.4362 11.6078C41.3522 11.4529 41.3101 11.2717 41.3101 11.0642C41.3101 10.8568 41.3535 10.6769 41.4401 10.5246C41.5268 10.3696 41.6437 10.2502 41.7907 10.1661C41.9404 10.0821 42.1072 10.0401 42.291 10.0401C42.4748 10.0401 42.6403 10.0821 42.7873 10.1661C42.9344 10.2502 43.0499 10.3696 43.134 10.5246C43.2206 10.6769 43.264 10.8568 43.264 11.0642C43.264 11.2717 43.2206 11.4529 43.134 11.6078C43.0473 11.7602 42.9291 11.8783 42.7794 11.9624C42.6324 12.0464 42.4669 12.0884 42.2831 12.0884ZM42.2831 11.8048C42.396 11.8048 42.5011 11.7772 42.5982 11.7221C42.6954 11.6669 42.7742 11.5842 42.8346 11.4739C42.895 11.3636 42.9252 11.2271 42.9252 11.0642C42.9252 10.9014 42.895 10.7649 42.8346 10.6546C42.7768 10.5443 42.6993 10.4616 42.6022 10.4064C42.505 10.3513 42.4013 10.3237 42.291 10.3237C42.1781 10.3237 42.073 10.3513 41.9759 10.4064C41.8787 10.4616 41.7999 10.5443 41.7395 10.6546C41.6791 10.7649 41.6489 10.9014 41.6489 11.0642C41.6489 11.2271 41.6791 11.3636 41.7395 11.4739C41.7999 11.5842 41.8774 11.6669 41.9719 11.7221C42.0691 11.7772 42.1728 11.8048 42.2831 11.8048Z" fill="#202020"/>
<path d="M43.724 12.0411V10.0873H44.0234L44.0431 10.4379C44.1061 10.3145 44.1967 10.2173 44.3149 10.1464C44.4331 10.0755 44.567 10.0401 44.7167 10.0401C44.9478 10.0401 45.1316 10.111 45.2682 10.2528C45.4073 10.392 45.4769 10.6073 45.4769 10.8988V12.0411H45.146V10.9343C45.146 10.5272 44.978 10.3237 44.6418 10.3237C44.4738 10.3237 44.3333 10.3854 44.2204 10.5088C44.1101 10.6296 44.0549 10.803 44.0549 11.0288V12.0411H43.724Z" fill="#202020"/>
<rect x="47.5777" y="10.0986" width="1.92739" height="1.92739" rx="0.5" fill="#202020"/>
<rect x="17.791" y="1.04736" width="2.05121" height="3.96924" fill="#202020"/>
<rect x="17.791" y="5.0166" width="2.05121" height="3.96924" fill="#202020"/>
<rect x="17.791" y="8.98584" width="2.05121" height="3.96924" fill="#202020"/>
<path d="M7.88538 12.9551V7.43021L4.96905 5.74421V7.13532C4.96905 7.41957 4.73862 7.64999 4.45437 7.64999C4.17013 7.64999 3.9397 7.41957 3.9397 7.13532V5.14912L3.0549 4.63759V9.48317C3.0549 9.70457 3.10773 9.90584 3.2134 10.087C3.31907 10.2681 3.4675 10.414 3.65871 10.5247L5.96917 11.8533V9.53579C5.96917 9.25154 6.1996 9.02112 6.48384 9.02112C6.76809 9.02112 6.99851 9.25154 6.99851 9.53579V12.4451L7.88538 12.9551Z" fill="#202020"/>
<path d="M13.3197 10.5247C13.5109 10.414 13.6593 10.2681 13.765 10.087C13.8707 9.90584 13.9235 9.70457 13.9235 9.48317V4.63759L9.093 7.43021V12.9551L9.9808 12.4446V8.17341C9.9808 7.88917 10.2112 7.65874 10.4955 7.65874C10.7797 7.65874 11.0101 7.88917 11.0101 8.17341V11.8527L12.0093 11.2782V9.45113C12.0093 9.16689 12.2398 8.93646 12.524 8.93646C12.8083 8.93646 13.0387 9.16689 13.0387 9.45113V10.6863L13.3197 10.5247Z" fill="#202020"/>
<path fill-rule="evenodd" clip-rule="evenodd" d="M9.093 1.21097L13.2744 3.61112L8.48919 6.38864L3.6889 3.62621L7.88538 1.21097C8.07659 1.10027 8.27786 1.04492 8.48919 1.04492C8.70053 1.04492 8.9018 1.10027 9.093 1.21097ZM8.71217 2.80224L10.1244 3.61288C10.1746 3.64166 10.1747 3.71392 10.1247 3.74294L8.52947 4.6689C8.50625 4.68238 8.4776 4.68243 8.45433 4.66904L6.85422 3.74822C6.80404 3.71934 6.80404 3.64694 6.85422 3.61806L8.27172 2.80224C8.34145 2.76186 8.41486 2.74168 8.49194 2.74168C8.56902 2.74168 8.64243 2.76186 8.71217 2.80224Z" fill="#202020"/>
</svg>
