<svg width="50" height="50" viewBox="0 0 50 50" fill="none" xmlns="http://www.w3.org/2000/svg">
<path d="M44.37 11.2821L27.4442 1.56652C26.6702 1.11843 25.8555 0.894379 25 0.894379C24.1445 0.894379 23.3298 1.11843 22.5558 1.56652L5.56892 11.3432L25 22.5252L44.37 11.2821Z" fill="#1D4F91"/>
<path d="M27.4442 49.1055L44.5533 39.2677C45.3273 38.8196 45.9281 38.229 46.3559 37.4957C46.7836 36.7625 46.9975 35.9477 46.9975 35.0515V19.1488L40.4038 36.2942L27.4442 29.2256V49.1055Z" fill="#1D4F91"/>
<path d="M30.147 25.1788L37.8493 29.4258L42.1434 18.2434L30.147 25.1788Z" fill="#1D4F91"/>
<path d="M22.3567 48.9846L22.5558 26.7414L3.00255 15.4371V35.0515C3.00255 35.9477 3.21641 36.7625 3.64414 37.4957C4.07187 38.229 4.47354 38.6987 5.24752 39.1468L14.0013 44.1866V33.8216L9.11535 30.9926C8.04237 30.3713 7.65935 29.0085 8.25159 27.9192C8.867 26.7873 10.2951 26.3863 11.4098 27.0326L16.6855 30.0913C16.6855 30.0913 18.1679 30.9285 18.1679 31.7959V46.5824L22.3567 48.9846Z" fill="#1D4F91"/>
</svg>
