<svg width="24" height="24" viewBox="0 0 24 24" fill="none" xmlns="http://www.w3.org/2000/svg">
<path d="M7.61168 19.5327L12 16.8892L16.3883 19.5327C16.5823 19.6561 16.7849 19.709 16.9964 19.6914C17.2078 19.6738 17.3929 19.6033 17.5516 19.4798C17.7101 19.3565 17.8335 19.2022 17.9217 19.0173C18.0098 18.8322 18.0274 18.6251 17.9745 18.3959L16.8113 13.3996L20.6974 10.0423C20.8736 9.88373 20.9838 9.70301 21.0279 9.50031C21.072 9.29768 21.0587 9.09941 20.9882 8.90555C20.9177 8.71169 20.812 8.55308 20.6709 8.4297C20.53 8.30633 20.3361 8.22703 20.0894 8.19178L14.9608 7.74237L12.9781 3.0368C12.89 2.82531 12.7535 2.6667 12.5684 2.56096C12.3834 2.45521 12.1939 2.40234 12 2.40234C11.8061 2.40234 11.6167 2.45521 11.4317 2.56096C11.2466 2.6667 11.11 2.82531 11.0219 3.0368L9.03921 7.74237L3.91066 8.19178C3.66393 8.22703 3.47007 8.30633 3.32908 8.4297C3.18809 8.55308 3.08234 8.71169 3.01185 8.90555C2.94135 9.09941 2.92814 9.29768 2.9722 9.50031C3.01626 9.70301 3.1264 9.88373 3.30264 10.0423L7.18871 13.3996L6.02553 18.3959C5.97266 18.6251 5.99028 18.8322 6.0784 19.0173C6.16653 19.2022 6.28989 19.3565 6.44851 19.4798C6.60712 19.6033 6.79217 19.6738 7.00366 19.6914C7.21514 19.709 7.41782 19.6561 7.61168 19.5327Z" stroke="currentColor" stroke-width="1.8675"/>
</svg>
