<svg width="24" height="24" viewBox="0 0 24 24" fill="none" xmlns="http://www.w3.org/2000/svg">
<g clip-path="url(#clip0_5389_11)">
<path d="M7.30033 20.6037L12 17.7725L16.6997 20.6037C16.9074 20.7357 17.1244 20.7924 17.3509 20.7735C17.5774 20.7547 17.7756 20.6792 17.9455 20.547C18.1153 20.4149 18.2475 20.2497 18.3418 20.0516C18.4362 19.8534 18.455 19.6316 18.3984 19.3862L17.1527 14.0354L21.3145 10.4398C21.5033 10.27 21.6213 10.0765 21.6685 9.8594C21.7156 9.64239 21.7015 9.43005 21.626 9.22244C21.5504 9.01482 21.4372 8.84495 21.2862 8.71282C21.1353 8.5807 20.9275 8.49577 20.6634 8.45802L15.1709 7.97673L13.0476 2.93728C12.9532 2.71079 12.8069 2.54093 12.6087 2.42768C12.4106 2.31444 12.2077 2.25781 12 2.25781C11.7924 2.25781 11.5895 2.31444 11.3914 2.42768C11.1931 2.54093 11.0469 2.71079 10.9525 2.93728L8.82915 7.97673L3.33672 8.45802C3.07248 8.49577 2.86486 8.5807 2.71387 8.71282C2.56288 8.84495 2.44963 9.01482 2.37413 9.22244C2.29864 9.43005 2.28448 9.64239 2.33167 9.8594C2.37885 10.0765 2.49682 10.27 2.68556 10.4398L6.84735 14.0354L5.60164 19.3862C5.54501 19.6316 5.56389 19.8534 5.65826 20.0516C5.75264 20.2497 5.88476 20.4149 6.05463 20.547C6.2245 20.6792 6.42268 20.7547 6.64917 20.7735C6.87566 20.7924 7.09271 20.7357 7.30033 20.6037Z" stroke="currentColor" stroke-width="2"/>
</g>
<defs>
<clipPath id="clip0_5389_11">
<rect width="24" height="24" fill="white"/>
</clipPath>
</defs>
</svg>
