<svg width="24" height="24" viewBox="0 0 24 24" fill="none" xmlns="http://www.w3.org/2000/svg">
<g clip-path="url(#clip0_5389_14)">
<path d="M20.7398 10.1867L20.7143 10.1217L18.2534 3.69921C18.2034 3.57333 18.1147 3.46654 18.0002 3.39418C17.8856 3.32304 17.7519 3.28878 17.6172 3.29602C17.4826 3.30326 17.3533 3.35165 17.247 3.43466C17.1419 3.52006 17.0657 3.63577 17.0286 3.76605L15.3669 8.84988H8.63836L6.9767 3.76605C6.94066 3.63506 6.86423 3.51876 6.75828 3.43372C6.65198 3.35071 6.52275 3.30231 6.38807 3.29508C6.25339 3.28784 6.11972 3.3221 6.00513 3.39324C5.89086 3.46589 5.80228 3.57258 5.75187 3.69826L3.43646 9.72675L3.26174 10.1829C2.90747 11.1086 2.86374 12.1243 3.13715 13.0769C3.41055 14.0296 3.98626 14.8675 4.77747 15.4645L4.78594 15.4711L4.80854 15.487L8.5574 18.2945L10.1477 19.4981L10.4121 19.6982L11.5418 20.5511C11.674 20.6515 11.8353 20.7058 12.0013 20.7058C12.1672 20.7058 12.3285 20.6515 12.4607 20.5511L13.5904 19.6982L15.4451 18.2945L19.2165 15.4701L19.2259 15.4626C20.0154 14.8656 20.5898 14.0285 20.8628 13.0771C21.1358 12.1257 21.0926 11.1114 20.7398 10.1867Z" stroke="currentColor" stroke-width="2"/>
</g>
<defs>
<clipPath id="clip0_5389_14">
<rect width="24" height="24" fill="white"/>
</clipPath>
</defs>
</svg>
