<svg width="24" height="24" viewBox="0 0 24 24" fill="none" xmlns="http://www.w3.org/2000/svg">
<path d="M21.4476 19.1469L11.4462 18.7581C11.0698 18.7436 10.7004 18.6513 10.3614 18.4868C10.0225 18.3224 9.72129 18.0894 9.4769 17.8027C9.2325 17.516 9.0502 17.1817 8.94151 16.821C8.83282 16.4603 8.80009 16.0809 8.8454 15.7069L9.47945 10.4366C9.50758 10.2015 9.45835 9.96351 9.33921 9.7588C9.22008 9.55408 9.03751 9.39374 8.81913 9.30202L2.1842 6.51331C1.2991 6.14313 1.59408 4.81889 2.55262 4.85294L12.5524 5.24789C12.9288 5.26238 13.2982 5.35476 13.6372 5.51921C13.9761 5.68365 14.2773 5.91659 14.5217 6.2033C14.7661 6.49002 14.9484 6.82429 15.0571 7.18501C15.1658 7.54574 15.1985 7.92508 15.1532 8.29909L14.5192 13.5694C14.491 13.8046 14.5402 14.0425 14.6594 14.2472C14.7785 14.4519 14.9611 14.6123 15.1795 14.704L21.8144 17.4927C22.6995 17.8629 22.4085 19.1849 21.4476 19.1469Z" stroke="currentColor" stroke-width="2"/>
</svg>
