<svg width="101" height="37" viewBox="0 0 101 37" fill="none" xmlns="http://www.w3.org/2000/svg">
<path d="M83.086 30.7604C83.8161 28.3671 86.6707 27.3168 88.4226 26.8122C88.5211 26.7838 88.6154 26.8656 88.6025 26.9673C88.4867 27.8799 88.3318 29.0538 88.6293 29.4811C89.9792 31.4198 90.045 34.3243 87.3079 35.3704C85.5601 36.0383 81.9513 34.48 83.086 30.7604Z" fill="#1D4F91"/>
<path d="M14.2941 8.83439C13.7407 8.83439 13.3053 8.70011 12.9879 8.43154C12.6705 8.16298 12.5118 7.67874 12.5118 6.97884V3.64618H11.4619V2.77944H12.5118L12.646 1.32675H13.5372V2.77944H15.3195V3.64618H13.5372V6.97884C13.5372 7.36135 13.6145 7.62177 13.7691 7.76013C13.9238 7.89034 14.1964 7.95545 14.587 7.95545H15.2218V8.83439H14.2941Z" fill="#1D4F91"/>
<path d="M16.6223 8.83439V0.0449524H17.6477V3.81709C17.8512 3.44272 18.1401 3.15381 18.5144 2.95035C18.8888 2.73875 19.2957 2.63295 19.7352 2.63295C20.4351 2.63295 20.9966 2.85269 21.4198 3.29216C21.843 3.7235 22.0546 4.39084 22.0546 5.2942V8.83439H21.0414V5.40407C21.0414 4.14262 20.5328 3.5119 19.5155 3.5119C18.9865 3.5119 18.5429 3.70315 18.1848 4.08565C17.8268 4.46002 17.6477 4.99715 17.6477 5.69705V8.83439H16.6223Z" fill="#1D4F91"/>
<path d="M26.3305 8.98088C25.7527 8.98088 25.24 8.85067 24.7924 8.59024C24.3448 8.32167 23.9907 7.95138 23.7303 7.47935C23.478 7.00733 23.3519 6.44985 23.3519 5.80692C23.3519 5.17213 23.478 4.61872 23.7303 4.14669C23.9826 3.66653 24.3326 3.29623 24.7802 3.0358C25.2359 2.76724 25.7608 2.63295 26.3549 2.63295C26.9409 2.63295 27.4455 2.76724 27.8687 3.0358C28.3 3.29623 28.6296 3.64211 28.8575 4.07345C29.0854 4.50478 29.1993 4.96867 29.1993 5.46511C29.1993 5.55463 29.1952 5.64415 29.1871 5.73367C29.1871 5.82319 29.1871 5.92492 29.1871 6.03886H24.3651C24.3895 6.50275 24.4953 6.88932 24.6825 7.19858C24.8778 7.4997 25.1179 7.72757 25.4027 7.8822C25.6957 8.03683 26.005 8.11415 26.3305 8.11415C26.7537 8.11415 27.1077 8.01648 27.3926 7.82116C27.6774 7.62584 27.885 7.36135 28.0152 7.02767H29.0284C28.8656 7.58922 28.5523 8.05718 28.0884 8.43154C27.6327 8.79777 27.0467 8.98088 26.3305 8.98088ZM26.3305 3.49969C25.8422 3.49969 25.4068 3.65025 25.0243 3.95137C24.65 4.24435 24.4343 4.67568 24.3773 5.24537H28.1861C28.1617 4.7001 27.9745 4.27284 27.6245 3.96358C27.2746 3.65432 26.8432 3.49969 26.3305 3.49969Z" fill="#1D4F91"/>
<path d="M15.4416 21.6251C14.9858 21.6251 14.587 21.5397 14.2452 21.3688C13.9034 21.1979 13.6267 20.9578 13.4151 20.6485L13.2442 21.4786H11.8526V12.6892H13.4151V16.2904C13.6104 16.0219 13.8668 15.7859 14.1842 15.5824C14.5097 15.3789 14.9289 15.2772 15.4416 15.2772C16.0113 15.2772 16.5199 15.4156 16.9675 15.6923C17.4151 15.969 17.7692 16.3474 18.0296 16.8276C18.29 17.3077 18.4202 17.853 18.4202 18.4634C18.4202 19.0738 18.29 19.619 18.0296 20.0992C17.7692 20.5712 17.4151 20.9456 16.9675 21.2223C16.5199 21.4909 16.0113 21.6251 15.4416 21.6251ZM15.112 20.2579C15.6084 20.2579 16.0194 20.0911 16.3449 19.7574C16.6705 19.4237 16.8332 18.9924 16.8332 18.4634C16.8332 17.9344 16.6705 17.499 16.3449 17.1572C16.0194 16.8154 15.6084 16.6445 15.112 16.6445C14.6074 16.6445 14.1923 16.8154 13.8668 17.1572C13.5494 17.4908 13.3907 17.9222 13.3907 18.4512C13.3907 18.9802 13.5494 19.4156 13.8668 19.7574C14.1923 20.0911 14.6074 20.2579 15.112 20.2579Z" fill="#1D4F91"/>
<path d="M23.4051 21.6251C22.9493 21.6251 22.5506 21.5397 22.2088 21.3688C21.8669 21.1979 21.5902 20.9578 21.3786 20.6485L21.2077 21.4786H19.8161V12.6892H21.3786V16.2904C21.574 16.0219 21.8303 15.7859 22.1477 15.5824C22.4733 15.3789 22.8924 15.2772 23.4051 15.2772C23.9748 15.2772 24.4834 15.4156 24.931 15.6923C25.3787 15.969 25.7327 16.3474 25.9931 16.8276C26.2535 17.3077 26.3837 17.853 26.3837 18.4634C26.3837 19.0738 26.2535 19.619 25.9931 20.0992C25.7327 20.5712 25.3787 20.9456 24.931 21.2223C24.4834 21.4909 23.9748 21.6251 23.4051 21.6251ZM23.0755 20.2579C23.5719 20.2579 23.9829 20.0911 24.3085 19.7574C24.634 19.4237 24.7968 18.9924 24.7968 18.4634C24.7968 17.9344 24.634 17.499 24.3085 17.1572C23.9829 16.8154 23.5719 16.6445 23.0755 16.6445C22.5709 16.6445 22.1559 16.8154 21.8303 17.1572C21.5129 17.4908 21.3542 17.9222 21.3542 18.4512C21.3542 18.9802 21.5129 19.4156 21.8303 19.7574C22.1559 20.0911 22.5709 20.2579 23.0755 20.2579Z" fill="#1D4F91"/>
<path d="M28.6463 14.4837C28.3615 14.4837 28.1255 14.3983 27.9383 14.2274C27.7593 14.0565 27.6697 13.8408 27.6697 13.5804C27.6697 13.3199 27.7593 13.1083 27.9383 12.9456C28.1255 12.7747 28.3615 12.6892 28.6463 12.6892C28.9312 12.6892 29.1631 12.7747 29.3422 12.9456C29.5293 13.1083 29.6229 13.3199 29.6229 13.5804C29.6229 13.8408 29.5293 14.0565 29.3422 14.2274C29.1631 14.3983 28.9312 14.4837 28.6463 14.4837ZM26.6321 24.1643V22.8337H27.1082C27.3768 22.8337 27.568 22.7808 27.6819 22.675C27.7959 22.5692 27.8528 22.3901 27.8528 22.1379V15.4237H29.4154V22.1379C29.4154 22.8703 29.2282 23.3912 28.8539 23.7004C28.4876 24.0097 27.9871 24.1643 27.3523 24.1643H26.6321Z" fill="#1D4F91"/>
<path d="M31.0461 24.1643V15.4237H32.4377L32.6086 16.2904C32.804 16.0219 33.0603 15.7859 33.3777 15.5824C33.7033 15.3789 34.1224 15.2772 34.6351 15.2772C35.2048 15.2772 35.7134 15.4156 36.161 15.6923C36.6086 15.969 36.9627 16.3474 37.2231 16.8276C37.4835 17.3077 37.6137 17.853 37.6137 18.4634C37.6137 19.0738 37.4835 19.619 37.2231 20.0992C36.9627 20.5712 36.6086 20.9456 36.161 21.2223C35.7134 21.4909 35.2048 21.6251 34.6351 21.6251C34.1793 21.6251 33.7806 21.5397 33.4388 21.3688C33.0969 21.1979 32.8202 20.9578 32.6086 20.6485V24.1643H31.0461ZM34.3055 20.2579C34.8019 20.2579 35.2129 20.0911 35.5385 19.7574C35.864 19.4237 36.0268 18.9924 36.0268 18.4634C36.0268 17.9344 35.864 17.499 35.5385 17.1572C35.2129 16.8154 34.8019 16.6445 34.3055 16.6445C33.8009 16.6445 33.3859 16.8154 33.0603 17.1572C32.7429 17.4908 32.5842 17.9222 32.5842 18.4512C32.5842 18.9802 32.7429 19.4156 33.0603 19.7574C33.3859 20.0911 33.8009 20.2579 34.3055 20.2579Z" fill="#1D4F91"/>
<path d="M39.0096 21.4786V15.4237H40.4013L40.5477 16.559C40.7675 16.1684 41.0645 15.8591 41.4389 15.6312C41.8214 15.3952 42.269 15.2772 42.7817 15.2772V16.9252H42.3423C42.0004 16.9252 41.6953 16.9781 41.4267 17.0839C41.1581 17.1897 40.9465 17.3728 40.7919 17.6333C40.6454 17.8937 40.5722 18.2559 40.5722 18.7197V21.4786H39.0096Z" fill="#1D4F91"/>
<path d="M46.6478 21.6251C46.0618 21.6251 45.5328 21.4909 45.0608 21.2223C44.5969 20.9537 44.2266 20.5834 43.9499 20.1114C43.6814 19.6312 43.5471 19.0778 43.5471 18.4512C43.5471 17.8245 43.6854 17.2752 43.9621 16.8032C44.2388 16.323 44.6091 15.9486 45.073 15.6801C45.5451 15.4115 46.074 15.2772 46.66 15.2772C47.2378 15.2772 47.7587 15.4115 48.2226 15.6801C48.6946 15.9486 49.0649 16.323 49.3335 16.8032C49.6102 17.2752 49.7485 17.8245 49.7485 18.4512C49.7485 19.0778 49.6102 19.6312 49.3335 20.1114C49.0649 20.5834 48.6946 20.9537 48.2226 21.2223C47.7506 21.4909 47.2256 21.6251 46.6478 21.6251ZM46.6478 20.2701C47.0547 20.2701 47.4087 20.1195 47.7099 19.8184C48.011 19.5092 48.1615 19.0534 48.1615 18.4512C48.1615 17.8489 48.011 17.3973 47.7099 17.0961C47.4087 16.7869 47.0588 16.6322 46.66 16.6322C46.245 16.6322 45.8869 16.7869 45.5857 17.0961C45.2928 17.3973 45.1463 17.8489 45.1463 18.4512C45.1463 19.0534 45.2928 19.5092 45.5857 19.8184C45.8869 20.1195 46.2409 20.2701 46.6478 20.2701Z" fill="#1D4F91"/>
<path d="M52.0124 14.4837C51.7275 14.4837 51.4915 14.3983 51.3043 14.2274C51.1253 14.0565 51.0357 13.8408 51.0357 13.5804C51.0357 13.3199 51.1253 13.1083 51.3043 12.9456C51.4915 12.7747 51.7275 12.6892 52.0124 12.6892C52.2972 12.6892 52.5291 12.7747 52.7082 12.9456C52.8954 13.1083 52.989 13.3199 52.989 13.5804C52.989 13.8408 52.8954 14.0565 52.7082 14.2274C52.5291 14.3983 52.2972 14.4837 52.0124 14.4837ZM49.9981 24.1643V22.8337H50.4742C50.7428 22.8337 50.934 22.7808 51.048 22.675C51.1619 22.5692 51.2189 22.3901 51.2189 22.1379V15.4237H52.7814V22.1379C52.7814 22.8703 52.5942 23.3912 52.2199 23.7004C51.8537 24.0097 51.3531 24.1643 50.7184 24.1643H49.9981Z" fill="#1D4F91"/>
<path d="M57.3541 21.6251C56.7437 21.6251 56.2025 21.4949 55.7305 21.2345C55.2585 20.9741 54.8882 20.6078 54.6196 20.1358C54.3511 19.6638 54.2168 19.1185 54.2168 18.5C54.2168 17.8733 54.347 17.3159 54.6074 16.8276C54.876 16.3393 55.2422 15.9608 55.7061 15.6923C56.1781 15.4156 56.7315 15.2772 57.3663 15.2772C57.9604 15.2772 58.4853 15.4074 58.9411 15.6679C59.3968 15.9283 59.7509 16.2864 60.0032 16.7421C60.2636 17.1897 60.3938 17.6902 60.3938 18.2436C60.3938 18.3332 60.3897 18.4268 60.3816 18.5244C60.3816 18.6221 60.3775 18.7238 60.3694 18.8296H55.7671C55.7997 19.3016 55.9625 19.6719 56.2554 19.9405C56.5566 20.2091 56.9187 20.3433 57.3419 20.3433C57.6593 20.3433 57.9238 20.2742 58.1354 20.1358C58.3551 19.9893 58.5179 19.8021 58.6237 19.5743H60.2107C60.0967 19.9568 59.9055 20.3067 59.6369 20.6241C59.3765 20.9334 59.051 21.1775 58.6603 21.3566C58.2778 21.5356 57.8424 21.6251 57.3541 21.6251ZM57.3663 16.5468C56.9838 16.5468 56.6461 16.6567 56.3531 16.8764C56.0601 17.088 55.8729 17.4135 55.7915 17.853H58.8068C58.7824 17.4542 58.6359 17.1368 58.3673 16.9008C58.0988 16.6648 57.7651 16.5468 57.3663 16.5468Z" fill="#1D4F91"/>
<path d="M61.708 21.4786V12.6892H63.2706V17.8774L65.4191 15.4237H67.2747L64.7965 18.1826L67.6775 21.4786H65.7243L63.2706 18.439V21.4786H61.708Z" fill="#1D4F91"/>
<path d="M14.6603 34.2694C14.0906 34.2694 13.5779 34.1392 13.1221 33.8787C12.6664 33.6183 12.3042 33.2521 12.0357 32.7801C11.7752 32.2999 11.645 31.7384 11.645 31.0954C11.645 30.4525 11.7793 29.895 12.0479 29.423C12.3164 28.9428 12.6786 28.5725 13.1343 28.3121C13.5982 28.0517 14.115 27.9215 14.6847 27.9215C15.2544 27.9215 15.7671 28.0517 16.2229 28.3121C16.6786 28.5725 17.0367 28.9428 17.2971 29.423C17.5657 29.895 17.7 30.4525 17.7 31.0954C17.7 31.7384 17.5657 32.2999 17.2971 32.7801C17.0286 33.2521 16.6623 33.6183 16.1984 33.8787C15.7427 34.1392 15.23 34.2694 14.6603 34.2694ZM14.6603 33.3904C15.0102 33.3904 15.3358 33.305 15.6369 33.1341C15.938 32.9632 16.1822 32.7068 16.3694 32.365C16.5565 32.0232 16.6501 31.6 16.6501 31.0954C16.6501 30.5908 16.5565 30.1677 16.3694 29.8258C16.1903 29.484 15.9502 29.2277 15.6491 29.0568C15.348 28.8859 15.0265 28.8004 14.6847 28.8004C14.3348 28.8004 14.0092 28.8859 13.7081 29.0568C13.407 29.2277 13.1628 29.484 12.9757 29.8258C12.7885 30.1677 12.6949 30.5908 12.6949 31.0954C12.6949 31.6 12.7885 32.0232 12.9757 32.365C13.1628 32.7068 13.4029 32.9632 13.6959 33.1341C13.997 33.305 14.3185 33.3904 14.6603 33.3904Z" fill="#1D4F91"/>
<path d="M19.1258 34.1229V28.068H20.0536L20.139 29.2277C20.3262 28.8289 20.611 28.5115 20.9935 28.2755C21.376 28.0395 21.8481 27.9215 22.4096 27.9215V28.9957H22.1288C21.7707 28.9957 21.4411 29.0608 21.14 29.191C20.8389 29.3131 20.5988 29.5247 20.4198 29.8258C20.2407 30.127 20.1512 30.542 20.1512 31.071V34.1229H19.1258Z" fill="#1D4F91"/>
<path d="M25.8102 32.2185C25.4684 32.2185 25.155 32.1738 24.8702 32.0842L24.2598 32.658C24.3493 32.7231 24.4592 32.7801 24.5894 32.8289C24.7278 32.8696 24.9231 32.9103 25.1754 32.951C25.4277 32.9835 25.7817 33.0202 26.2374 33.0608C27.0513 33.1178 27.6332 33.305 27.9831 33.6224C28.3331 33.9398 28.508 34.3548 28.508 34.8676C28.508 35.2175 28.4104 35.5512 28.2151 35.8686C28.0279 36.186 27.7349 36.4464 27.3361 36.6499C26.9455 36.8533 26.4409 36.9551 25.8224 36.9551C25.2771 36.9551 24.7929 36.8818 24.3697 36.7353C23.9465 36.597 23.6169 36.3813 23.3809 36.0883C23.1449 35.8035 23.0269 35.4413 23.0269 35.0018C23.0269 34.774 23.0879 34.5257 23.21 34.2572C23.332 33.9968 23.5599 33.7485 23.8936 33.5125C23.7145 33.4393 23.5599 33.362 23.4297 33.2806C23.3076 33.1911 23.1937 33.0934 23.0879 32.9876V32.7068L24.1255 31.6814C23.6454 31.2745 23.4053 30.7373 23.4053 30.07C23.4053 29.6712 23.4989 29.3091 23.6861 28.9835C23.8732 28.658 24.1459 28.4016 24.504 28.2144C24.8621 28.0191 25.2975 27.9215 25.8102 27.9215C26.1601 27.9215 26.4775 27.9703 26.7624 28.068H28.9963V28.837L27.861 28.8859C28.0971 29.2277 28.2151 29.6224 28.2151 30.07C28.2151 30.4688 28.1174 30.8309 27.9221 31.1565C27.7349 31.482 27.4623 31.7424 27.1042 31.9377C26.7542 32.1249 26.3229 32.2185 25.8102 32.2185ZM25.8102 31.3762C26.2415 31.3762 26.5833 31.2663 26.8356 31.0466C27.096 30.8187 27.2263 30.4932 27.2263 30.07C27.2263 29.6549 27.096 29.3375 26.8356 29.1178C26.5833 28.8899 26.2415 28.776 25.8102 28.776C25.3707 28.776 25.0208 28.8899 24.7603 29.1178C24.508 29.3375 24.3819 29.6549 24.3819 30.07C24.3819 30.4932 24.508 30.8187 24.7603 31.0466C25.0208 31.2663 25.3707 31.3762 25.8102 31.3762ZM24.0279 34.9042C24.0279 35.3111 24.1988 35.6122 24.5406 35.8075C24.8824 36.011 25.3097 36.1127 25.8224 36.1127C26.327 36.1127 26.7298 36.0029 27.0309 35.7831C27.3402 35.5634 27.4948 35.2704 27.4948 34.9042C27.4948 34.6438 27.389 34.4159 27.1774 34.2206C26.9658 34.0334 26.5752 33.9235 26.0055 33.891C25.5579 33.8584 25.1713 33.8177 24.8458 33.7689C24.5121 33.9479 24.2924 34.1392 24.1866 34.3426C24.0808 34.5542 24.0279 34.7414 24.0279 34.9042Z" fill="#1D4F91"/>
<path d="M32.1674 34.2694C31.6628 34.2694 31.2437 34.1839 30.91 34.013C30.5763 33.8421 30.3281 33.6143 30.1653 33.3294C30.0025 33.0446 29.9212 32.7353 29.9212 32.4016C29.9212 31.7831 30.1572 31.307 30.6292 30.9733C31.1012 30.6397 31.7442 30.4728 32.558 30.4728H34.1938V30.3996C34.1938 29.8706 34.0555 29.4718 33.7788 29.2033C33.502 28.9266 33.1318 28.7882 32.6679 28.7882C32.2691 28.7882 31.9232 28.8899 31.6302 29.0934C31.3454 29.2887 31.1663 29.5776 31.0931 29.9601H30.0432C30.0839 29.5207 30.2304 29.1504 30.4827 28.8492C30.7431 28.5481 31.0646 28.3202 31.4471 28.1656C31.8296 28.0028 32.2365 27.9215 32.6679 27.9215C33.5143 27.9215 34.149 28.1493 34.5722 28.6051C35.0036 29.0527 35.2192 29.6509 35.2192 30.3996V34.1229H34.3037L34.2426 33.0364C34.0717 33.3782 33.8194 33.6712 33.4858 33.9154C33.1602 34.1514 32.7208 34.2694 32.1674 34.2694ZM32.3261 33.4027C32.7167 33.4027 33.0504 33.3009 33.3271 33.0975C33.6119 32.894 33.8276 32.6295 33.9741 32.304C34.1206 31.9784 34.1938 31.6366 34.1938 31.2785V31.2663H32.6435C32.0412 31.2663 31.6139 31.3721 31.3617 31.5837C31.1175 31.7872 30.9954 32.0435 30.9954 32.3528C30.9954 32.6702 31.1094 32.9266 31.3372 33.1219C31.5733 33.3091 31.9029 33.4027 32.3261 33.4027Z" fill="#1D4F91"/>
<path d="M36.7576 34.1229V28.068H37.6854L37.7464 29.1544C37.9417 28.7719 38.2225 28.4708 38.5887 28.2511C38.9549 28.0313 39.37 27.9215 39.8339 27.9215C40.5501 27.9215 41.1198 28.1412 41.5429 28.5807C41.9743 29.012 42.1899 29.6793 42.1899 30.5827V34.1229H41.1645V30.6926C41.1645 29.4311 40.6437 28.8004 39.6019 28.8004C39.0811 28.8004 38.6457 28.9917 38.2957 29.3742C37.9539 29.7485 37.783 30.2857 37.783 30.9856V34.1229H36.7576Z" fill="#1D4F91"/>
<path d="M44.3661 26.7251C44.1627 26.7251 43.9918 26.66 43.8534 26.5298C43.7232 26.3914 43.6581 26.2205 43.6581 26.0171C43.6581 25.8218 43.7232 25.659 43.8534 25.5288C43.9918 25.3986 44.1627 25.3335 44.3661 25.3335C44.5615 25.3335 44.7283 25.3986 44.8666 25.5288C45.005 25.659 45.0742 25.8218 45.0742 26.0171C45.0742 26.2205 45.005 26.3914 44.8666 26.5298C44.7283 26.66 44.5615 26.7251 44.3661 26.7251ZM43.8534 34.1229V28.068H44.8789V34.1229H43.8534Z" fill="#1D4F91"/>
<path d="M46.2492 34.1229V33.2806L49.6185 28.9225H46.3103V28.068H50.766V28.9103L47.3968 33.2684H50.8271V34.1229H46.2492Z" fill="#1D4F91"/>
<path d="M54.1982 34.2694C53.6936 34.2694 53.2745 34.1839 52.9408 34.013C52.6071 33.8421 52.3589 33.6143 52.1961 33.3294C52.0334 33.0446 51.952 32.7353 51.952 32.4016C51.952 31.7831 52.188 31.307 52.66 30.9733C53.132 30.6397 53.775 30.4728 54.5888 30.4728H56.2246V30.3996C56.2246 29.8706 56.0863 29.4718 55.8096 29.2033C55.5329 28.9266 55.1626 28.7882 54.6987 28.7882C54.2999 28.7882 53.954 28.8899 53.661 29.0934C53.3762 29.2887 53.1972 29.5776 53.1239 29.9601H52.0741C52.1148 29.5207 52.2612 29.1504 52.5135 28.8492C52.774 28.5481 53.0954 28.3202 53.4779 28.1656C53.8604 28.0028 54.2673 27.9215 54.6987 27.9215C55.5451 27.9215 56.1799 28.1493 56.6031 28.6051C57.0344 29.0527 57.2501 29.6509 57.2501 30.3996V34.1229H56.3345L56.2735 33.0364C56.1026 33.3782 55.8503 33.6712 55.5166 33.9154C55.1911 34.1514 54.7516 34.2694 54.1982 34.2694ZM54.3569 33.4027C54.7475 33.4027 55.0812 33.3009 55.3579 33.0975C55.6427 32.894 55.8584 32.6295 56.0049 32.304C56.1514 31.9784 56.2246 31.6366 56.2246 31.2785V31.2663H54.6743C54.072 31.2663 53.6448 31.3721 53.3925 31.5837C53.1483 31.7872 53.0262 32.0435 53.0262 32.3528C53.0262 32.6702 53.1402 32.9266 53.3681 33.1219C53.6041 33.3091 53.9337 33.4027 54.3569 33.4027Z" fill="#1D4F91"/>
<path d="M61.0142 34.1229C60.4608 34.1229 60.0254 33.9886 59.708 33.7201C59.3906 33.4515 59.2319 32.9673 59.2319 32.2674V28.9347H58.182V28.068H59.2319L59.3662 26.6153H60.2573V28.068H62.0396V28.9347H60.2573V32.2674C60.2573 32.6499 60.3346 32.9103 60.4893 33.0486C60.6439 33.1788 60.9165 33.244 61.3072 33.244H61.942V34.1229H61.0142Z" fill="#1D4F91"/>
<path d="M63.965 26.7251C63.7615 26.7251 63.5906 26.66 63.4523 26.5298C63.322 26.3914 63.2569 26.2205 63.2569 26.0171C63.2569 25.8218 63.322 25.659 63.4523 25.5288C63.5906 25.3986 63.7615 25.3335 63.965 25.3335C64.1603 25.3335 64.3271 25.3986 64.4655 25.5288C64.6038 25.659 64.673 25.8218 64.673 26.0171C64.673 26.2205 64.6038 26.3914 64.4655 26.5298C64.3271 26.66 64.1603 26.7251 63.965 26.7251ZM63.4523 34.1229V28.068H64.4777V34.1229H63.4523Z" fill="#1D4F91"/>
<path d="M69.0221 34.2694C68.4524 34.2694 67.9397 34.1392 67.4839 33.8787C67.0282 33.6183 66.666 33.2521 66.3974 32.7801C66.137 32.2999 66.0068 31.7384 66.0068 31.0954C66.0068 30.4525 66.1411 29.895 66.4096 29.423C66.6782 28.9428 67.0404 28.5725 67.4961 28.3121C67.96 28.0517 68.4768 27.9215 69.0465 27.9215C69.6162 27.9215 70.1289 28.0517 70.5846 28.3121C71.0404 28.5725 71.3985 28.9428 71.6589 29.423C71.9275 29.895 72.0617 30.4525 72.0617 31.0954C72.0617 31.7384 71.9275 32.2999 71.6589 32.7801C71.3903 33.2521 71.0241 33.6183 70.5602 33.8787C70.1045 34.1392 69.5917 34.2694 69.0221 34.2694ZM69.0221 33.3904C69.372 33.3904 69.6975 33.305 69.9987 33.1341C70.2998 32.9632 70.5439 32.7068 70.7311 32.365C70.9183 32.0232 71.0119 31.6 71.0119 31.0954C71.0119 30.5908 70.9183 30.1677 70.7311 29.8258C70.5521 29.484 70.312 29.2277 70.0109 29.0568C69.7098 28.8859 69.3883 28.8004 69.0465 28.8004C68.6965 28.8004 68.371 28.8859 68.0699 29.0568C67.7687 29.2277 67.5246 29.484 67.3374 29.8258C67.1502 30.1677 67.0566 30.5908 67.0566 31.0954C67.0566 31.6 67.1502 32.0232 67.3374 32.365C67.5246 32.7068 67.7647 32.9632 68.0577 33.1341C68.3588 33.305 68.6802 33.3904 69.0221 33.3904Z" fill="#1D4F91"/>
<path d="M73.4875 34.1229V28.068H74.4153L74.4763 29.1544C74.6717 28.7719 74.9524 28.4708 75.3187 28.2511C75.6849 28.0313 76.1 27.9215 76.5638 27.9215C77.28 27.9215 77.8497 28.1412 78.2729 28.5807C78.7042 29.012 78.9199 29.6793 78.9199 30.5827V34.1229H77.8945V30.6926C77.8945 29.4311 77.3736 28.8004 76.3319 28.8004C75.811 28.8004 75.3756 28.9917 75.0257 29.3742C74.6839 29.7485 74.513 30.2857 74.513 30.9856V34.1229H73.4875Z" fill="#1D4F91"/>
</svg>
