<svg width="27" height="30" viewBox="0 0 27 30" fill="none" xmlns="http://www.w3.org/2000/svg">
<path d="M12.3007 29.0551V15.6366L5.21768 11.5418V14.9204C5.21768 15.6108 4.65804 16.1704 3.96768 16.1704C3.27733 16.1704 2.71768 15.6108 2.71768 14.9204V10.0964L0.568726 8.85408V20.6227C0.568726 21.1604 0.697044 21.6493 0.953681 22.0892C1.21032 22.5292 1.57083 22.8836 2.03522 23.1524L7.64673 26.379V20.7505C7.64673 20.0602 8.20637 19.5005 8.89673 19.5005C9.58708 19.5005 10.1467 20.0602 10.1467 20.7505V27.8165L12.3007 29.0551Z" fill="#1D4F91"/>
<path d="M25.4992 23.1524C25.9636 22.8836 26.3241 22.5292 26.5807 22.0892C26.8374 21.6493 26.9657 21.1604 26.9657 20.6227V8.85408L15.2337 15.6366V29.0551L17.3899 27.8152V16.8983C17.3899 16.208 17.9496 15.6483 18.6399 15.6483C19.3303 15.6483 19.8899 16.208 19.8899 16.8983V26.3777L22.3167 24.9823V20.5449C22.3167 19.8545 22.8764 19.2949 23.5667 19.2949C24.2571 19.2949 24.8167 19.8545 24.8167 20.5449V23.5448L25.4992 23.1524Z" fill="#1D4F91"/>
<path fill-rule="evenodd" clip-rule="evenodd" d="M15.2337 0.531705L25.3892 6.36103L13.7672 13.1069L2.10855 6.39769L12.3007 0.531705C12.7651 0.262847 13.2539 0.128418 13.7672 0.128418C14.2805 0.128418 14.7693 0.262847 15.2337 0.531705ZM14.3088 4.39648L17.7387 6.36532C17.8605 6.43521 17.8609 6.61072 17.7395 6.6812L13.865 8.93011C13.8086 8.96284 13.739 8.96297 13.6825 8.93045L9.79628 6.69402C9.67441 6.62389 9.67441 6.44805 9.79628 6.37791L13.239 4.39648C13.4084 4.29842 13.5867 4.24939 13.7739 4.24939C13.9611 4.24939 14.1394 4.29842 14.3088 4.39648Z" fill="#1D4F91"/>
</svg>
