<svg width="51" height="14" viewBox="0 0 51 14" fill="none" xmlns="http://www.w3.org/2000/svg">
<path d="M23.8436 3.88109C23.665 3.88109 23.5245 3.83776 23.4221 3.7511C23.3197 3.66443 23.2684 3.50818 23.2684 3.28234V2.20696H22.9297V1.92728H23.2684L23.3118 1.45853H23.5993V1.92728H24.1744V2.20696H23.5993V3.28234C23.5993 3.40577 23.6243 3.4898 23.6742 3.53444C23.7241 3.57646 23.812 3.59747 23.9381 3.59747H24.1429V3.88109H23.8436Z" fill="white"/>
<path d="M24.5948 3.88109V1.04492H24.9257V2.26211C24.9914 2.14131 25.0846 2.04808 25.2054 1.98243C25.3262 1.91415 25.4575 1.88001 25.5993 1.88001C25.8251 1.88001 26.0063 1.95092 26.1429 2.09273C26.2794 2.23191 26.3477 2.44725 26.3477 2.73874V3.88109H26.0208V2.77419C26.0208 2.36715 25.8566 2.16363 25.5284 2.16363C25.3577 2.16363 25.2146 2.22534 25.099 2.34877C24.9835 2.46957 24.9257 2.64289 24.9257 2.86873V3.88109H24.5948Z" fill="white"/>
<path d="M27.7275 3.92836C27.541 3.92836 27.3756 3.88634 27.2311 3.8023C27.0867 3.71564 26.9725 3.59616 26.8884 3.44384C26.807 3.29153 26.7663 3.11165 26.7663 2.90419C26.7663 2.69935 26.807 2.52078 26.8884 2.36847C26.9698 2.21353 27.0828 2.09404 27.2272 2.01001C27.3743 1.92334 27.5436 1.88001 27.7353 1.88001C27.9244 1.88001 28.0872 1.92334 28.2238 2.01001C28.363 2.09404 28.4693 2.20565 28.5429 2.34483C28.6164 2.48401 28.6532 2.6337 28.6532 2.79389C28.6532 2.82278 28.6518 2.85166 28.6492 2.88055C28.6492 2.90944 28.6492 2.94226 28.6492 2.97903H27.0933C27.1011 3.12871 27.1353 3.25345 27.1957 3.35324C27.2587 3.45041 27.3362 3.52394 27.4281 3.57383C27.5226 3.62373 27.6224 3.64868 27.7275 3.64868C27.864 3.64868 27.9783 3.61717 28.0702 3.55414C28.1621 3.49111 28.229 3.40577 28.2711 3.2981H28.598C28.5455 3.4793 28.4444 3.6303 28.2947 3.7511C28.1476 3.86927 27.9586 3.92836 27.7275 3.92836ZM27.7275 2.15969C27.5699 2.15969 27.4294 2.20827 27.306 2.30544C27.1852 2.39998 27.1156 2.53916 27.0972 2.72299H28.3262C28.3183 2.54704 28.2579 2.40917 28.145 2.30938C28.0321 2.20959 27.8929 2.15969 27.7275 2.15969Z" fill="white"/>
<path d="M24.2138 8.00839C24.0668 8.00839 23.9381 7.98081 23.8278 7.92566C23.7175 7.87052 23.6282 7.79305 23.5599 7.69326L23.5048 7.96112H23.0557V5.12495H23.5599V6.28699C23.623 6.20033 23.7057 6.12417 23.8081 6.05852C23.9131 5.99287 24.0484 5.96004 24.2138 5.96004C24.3977 5.96004 24.5618 6.00469 24.7062 6.09397C24.8507 6.18326 24.9649 6.30537 25.0489 6.46031C25.133 6.61525 25.175 6.7912 25.175 6.98815C25.175 7.18511 25.133 7.36106 25.0489 7.516C24.9649 7.66831 24.8507 7.78911 24.7062 7.87839C24.5618 7.96506 24.3977 8.00839 24.2138 8.00839ZM24.1075 7.5672C24.2677 7.5672 24.4003 7.51337 24.5053 7.4057C24.6104 7.29803 24.6629 7.15885 24.6629 6.98815C24.6629 6.81746 24.6104 6.67696 24.5053 6.56667C24.4003 6.45637 24.2677 6.40123 24.1075 6.40123C23.9447 6.40123 23.8107 6.45637 23.7057 6.56667C23.6033 6.67434 23.5521 6.81352 23.5521 6.98422C23.5521 7.15491 23.6033 7.29541 23.7057 7.4057C23.8107 7.51337 23.9447 7.5672 24.1075 7.5672Z" fill="white"/>
<path d="M26.7835 8.00839C26.6364 8.00839 26.5078 7.98081 26.3975 7.92566C26.2872 7.87052 26.1979 7.79305 26.1296 7.69326L26.0744 7.96112H25.6254V5.12495H26.1296V6.28699C26.1926 6.20033 26.2753 6.12417 26.3778 6.05852C26.4828 5.99287 26.618 5.96004 26.7835 5.96004C26.9673 5.96004 27.1314 6.00469 27.2759 6.09397C27.4203 6.18326 27.5345 6.30537 27.6186 6.46031C27.7026 6.61525 27.7446 6.7912 27.7446 6.98815C27.7446 7.18511 27.7026 7.36106 27.6186 7.516C27.5345 7.66831 27.4203 7.78911 27.2759 7.87839C27.1314 7.96506 26.9673 8.00839 26.7835 8.00839ZM26.6771 7.5672C26.8373 7.5672 26.9699 7.51337 27.075 7.4057C27.18 7.29803 27.2325 7.15885 27.2325 6.98815C27.2325 6.81746 27.18 6.67696 27.075 6.56667C26.9699 6.45637 26.8373 6.40123 26.6771 6.40123C26.5143 6.40123 26.3804 6.45637 26.2753 6.56667C26.1729 6.67434 26.1217 6.81352 26.1217 6.98422C26.1217 7.15491 26.1729 7.29541 26.2753 7.4057C26.3804 7.51337 26.5143 7.5672 26.6771 7.5672Z" fill="white"/>
<path d="M28.4747 5.704C28.3828 5.704 28.3067 5.67643 28.2463 5.62128C28.1885 5.56613 28.1596 5.49654 28.1596 5.41251C28.1596 5.32847 28.1885 5.2602 28.2463 5.20767C28.3067 5.15253 28.3828 5.12495 28.4747 5.12495C28.5666 5.12495 28.6415 5.15253 28.6993 5.20767C28.7597 5.2602 28.7899 5.32847 28.7899 5.41251C28.7899 5.49654 28.7597 5.56613 28.6993 5.62128C28.6415 5.67643 28.5666 5.704 28.4747 5.704ZM27.8248 8.82772V8.39836H27.9784C28.0651 8.39836 28.1268 8.38129 28.1635 8.34715C28.2003 8.31301 28.2187 8.25524 28.2187 8.17383V6.00731H28.7229V8.17383C28.7229 8.41018 28.6625 8.57824 28.5417 8.67804C28.4235 8.77783 28.262 8.82772 28.0572 8.82772H27.8248Z" fill="white"/>
<path d="M29.2491 8.82772V6.00731H29.6981L29.7533 6.28699C29.8163 6.20033 29.899 6.12417 30.0014 6.05852C30.1065 5.99287 30.2417 5.96004 30.4072 5.96004C30.591 5.96004 30.7551 6.00469 30.8996 6.09397C31.044 6.18326 31.1582 6.30537 31.2423 6.46031C31.3263 6.61525 31.3683 6.7912 31.3683 6.98815C31.3683 7.18511 31.3263 7.36106 31.2423 7.516C31.1582 7.66831 31.044 7.78911 30.8996 7.87839C30.7551 7.96506 30.591 8.00839 30.4072 8.00839C30.2601 8.00839 30.1314 7.98081 30.0211 7.92566C29.9108 7.87052 29.8216 7.79305 29.7533 7.69326V8.82772H29.2491ZM30.3008 7.5672C30.461 7.5672 30.5936 7.51337 30.6987 7.4057C30.8037 7.29803 30.8562 7.15885 30.8562 6.98815C30.8562 6.81746 30.8037 6.67696 30.6987 6.56667C30.5936 6.45637 30.461 6.40123 30.3008 6.40123C30.138 6.40123 30.0041 6.45637 29.899 6.56667C29.7966 6.67434 29.7454 6.81352 29.7454 6.98422C29.7454 7.15491 29.7966 7.29541 29.899 7.4057C30.0041 7.51337 30.138 7.5672 30.3008 7.5672Z" fill="white"/>
<path d="M31.8187 7.96112V6.00731H32.2678L32.3151 6.37365C32.386 6.2476 32.4818 6.14781 32.6026 6.07428C32.726 5.99812 32.8705 5.96004 33.0359 5.96004V6.49183H32.8941C32.7838 6.49183 32.6853 6.5089 32.5987 6.54303C32.512 6.57717 32.4437 6.63626 32.3938 6.72029C32.3466 6.80433 32.3229 6.92119 32.3229 7.07088V7.96112H31.8187Z" fill="white"/>
<path d="M34.2834 8.00839C34.0943 8.00839 33.9236 7.96506 33.7713 7.87839C33.6216 7.79173 33.5022 7.67225 33.4129 7.51993C33.3262 7.365 33.2829 7.18642 33.2829 6.98422C33.2829 6.78201 33.3275 6.60475 33.4168 6.45243C33.5061 6.2975 33.6256 6.1767 33.7753 6.09004C33.9276 6.00338 34.0983 5.96004 34.2874 5.96004C34.4738 5.96004 34.6419 6.00338 34.7916 6.09004C34.9439 6.1767 35.0634 6.2975 35.15 6.45243C35.2393 6.60475 35.2839 6.78201 35.2839 6.98422C35.2839 7.18642 35.2393 7.365 35.15 7.51993C35.0634 7.67225 34.9439 7.79173 34.7916 7.87839C34.6392 7.96506 34.4699 8.00839 34.2834 8.00839ZM34.2834 7.57114C34.4147 7.57114 34.5289 7.52256 34.6261 7.4254C34.7233 7.32561 34.7719 7.17855 34.7719 6.98422C34.7719 6.78989 34.7233 6.64414 34.6261 6.54697C34.5289 6.44718 34.416 6.39729 34.2874 6.39729C34.1534 6.39729 34.0379 6.44718 33.9407 6.54697C33.8462 6.64414 33.7989 6.78989 33.7989 6.98422C33.7989 7.17855 33.8462 7.32561 33.9407 7.4254C34.0379 7.52256 34.1521 7.57114 34.2834 7.57114Z" fill="white"/>
<path d="M36.0144 5.704C35.9225 5.704 35.8464 5.67643 35.786 5.62128C35.7282 5.56613 35.6993 5.49654 35.6993 5.41251C35.6993 5.32847 35.7282 5.2602 35.786 5.20767C35.8464 5.15253 35.9225 5.12495 36.0144 5.12495C36.1064 5.12495 36.1812 5.15253 36.239 5.20767C36.2994 5.2602 36.3296 5.32847 36.3296 5.41251C36.3296 5.49654 36.2994 5.56613 36.239 5.62128C36.1812 5.67643 36.1064 5.704 36.0144 5.704ZM35.3645 8.82772V8.39836H35.5181C35.6048 8.39836 35.6665 8.38129 35.7032 8.34715C35.74 8.31301 35.7584 8.25524 35.7584 8.17383V6.00731H36.2626V8.17383C36.2626 8.41018 36.2022 8.57824 36.0814 8.67804C35.9632 8.77783 35.8017 8.82772 35.5969 8.82772H35.3645Z" fill="white"/>
<path d="M37.7381 8.00839C37.5412 8.00839 37.3665 7.96637 37.2142 7.88233C37.0619 7.7983 36.9424 7.68013 36.8557 7.52781C36.7691 7.3755 36.7258 7.19955 36.7258 6.99997C36.7258 6.79776 36.7678 6.61788 36.8518 6.46031C36.9385 6.30275 37.0566 6.18064 37.2063 6.09397C37.3586 6.00469 37.5372 5.96004 37.742 5.96004C37.9338 5.96004 38.1031 6.00206 38.2502 6.0861C38.3973 6.17013 38.5115 6.28568 38.5929 6.43274C38.6769 6.57717 38.7189 6.73868 38.7189 6.91725C38.7189 6.94614 38.7176 6.97634 38.715 7.00785C38.715 7.03936 38.7137 7.07219 38.7111 7.10633H37.226C37.2365 7.25864 37.289 7.37813 37.3836 7.46479C37.4808 7.55145 37.5976 7.59478 37.7342 7.59478C37.8366 7.59478 37.9219 7.57246 37.9902 7.52781C38.0611 7.48054 38.1136 7.42014 38.1478 7.34661H38.6599C38.6231 7.47004 38.5614 7.58296 38.4747 7.68538C38.3907 7.78517 38.2856 7.86395 38.1596 7.92173C38.0362 7.9795 37.8957 8.00839 37.7381 8.00839ZM37.742 6.36971C37.6186 6.36971 37.5096 6.40517 37.4151 6.47607C37.3206 6.54435 37.2602 6.64939 37.2339 6.7912H38.2069C38.199 6.66252 38.1517 6.5601 38.0651 6.48395C37.9784 6.40779 37.8707 6.36971 37.742 6.36971Z" fill="white"/>
<path d="M39.143 7.96112V5.12495H39.6472V6.79908L40.3405 6.00731H40.9393L40.1396 6.89755L41.0692 7.96112H40.439L39.6472 6.98028V7.96112H39.143Z" fill="white"/>
<path d="M23.9617 12.0884C23.7779 12.0884 23.6125 12.0464 23.4654 11.9624C23.3183 11.8783 23.2015 11.7602 23.1148 11.6078C23.0308 11.4529 22.9888 11.2717 22.9888 11.0642C22.9888 10.8568 23.0321 10.6769 23.1188 10.5246C23.2054 10.3696 23.3223 10.2502 23.4693 10.1661C23.619 10.0821 23.7858 10.0401 23.9696 10.0401C24.1534 10.0401 24.3189 10.0821 24.4659 10.1661C24.613 10.2502 24.7285 10.3696 24.8126 10.5246C24.8992 10.6769 24.9426 10.8568 24.9426 11.0642C24.9426 11.2717 24.8992 11.4529 24.8126 11.6078C24.7259 11.7602 24.6077 11.8783 24.4581 11.9624C24.311 12.0464 24.1456 12.0884 23.9617 12.0884ZM23.9617 11.8048C24.0746 11.8048 24.1797 11.7772 24.2769 11.7221C24.374 11.6669 24.4528 11.5842 24.5132 11.4739C24.5736 11.3636 24.6038 11.2271 24.6038 11.0642C24.6038 10.9014 24.5736 10.7649 24.5132 10.6546C24.4554 10.5443 24.378 10.4616 24.2808 10.4064C24.1836 10.3513 24.0799 10.3237 23.9696 10.3237C23.8567 10.3237 23.7516 10.3513 23.6545 10.4064C23.5573 10.4616 23.4785 10.5443 23.4181 10.6546C23.3577 10.7649 23.3275 10.9014 23.3275 11.0642C23.3275 11.2271 23.3577 11.3636 23.4181 11.4739C23.4785 11.5842 23.556 11.6669 23.6505 11.7221C23.7477 11.7772 23.8514 11.8048 23.9617 11.8048Z" fill="white"/>
<path d="M25.4026 12.0411V10.0873H25.702L25.7296 10.4616C25.79 10.3329 25.8819 10.2305 26.0053 10.1543C26.1288 10.0782 26.2811 10.0401 26.4623 10.0401V10.3867H26.3717C26.2561 10.3867 26.1498 10.4077 26.0526 10.4497C25.9554 10.4891 25.878 10.5574 25.8202 10.6546C25.7624 10.7517 25.7335 10.8857 25.7335 11.0564V12.0411H25.4026Z" fill="white"/>
<path d="M27.5596 11.4266C27.4493 11.4266 27.3482 11.4122 27.2562 11.3833L27.0593 11.5685C27.0882 11.5895 27.1236 11.6078 27.1656 11.6236C27.2103 11.6367 27.2733 11.6499 27.3547 11.663C27.4361 11.6735 27.5504 11.6853 27.6974 11.6984C27.96 11.7168 28.1478 11.7772 28.2607 11.8796C28.3736 11.9821 28.4301 12.116 28.4301 12.2814C28.4301 12.3944 28.3986 12.502 28.3356 12.6044C28.2752 12.7069 28.1806 12.7909 28.0519 12.8565C27.9259 12.9222 27.7631 12.955 27.5635 12.955C27.3875 12.955 27.2313 12.9314 27.0947 12.8841C26.9582 12.8395 26.8518 12.7699 26.7757 12.6753C26.6995 12.5834 26.6614 12.4666 26.6614 12.3248C26.6614 12.2512 26.6811 12.1711 26.7205 12.0845C26.7599 12.0004 26.8334 11.9203 26.9411 11.8442C26.8833 11.8206 26.8334 11.7956 26.7914 11.7693C26.752 11.7405 26.7153 11.7089 26.6811 11.6748V11.5842L27.016 11.2533C26.861 11.122 26.7836 10.9487 26.7836 10.7334C26.7836 10.6047 26.8138 10.4878 26.8742 10.3828C26.9346 10.2777 27.0225 10.195 27.1381 10.1346C27.2536 10.0716 27.3941 10.0401 27.5596 10.0401C27.6725 10.0401 27.7749 10.0558 27.8668 10.0873H28.5877V10.3355L28.2213 10.3513C28.2975 10.4616 28.3356 10.5889 28.3356 10.7334C28.3356 10.862 28.304 10.9789 28.241 11.0839C28.1806 11.189 28.0927 11.273 27.9771 11.336C27.8642 11.3964 27.725 11.4266 27.5596 11.4266ZM27.5596 11.1548C27.6987 11.1548 27.809 11.1194 27.8904 11.0485C27.9745 10.975 28.0165 10.8699 28.0165 10.7334C28.0165 10.5994 27.9745 10.497 27.8904 10.4261C27.809 10.3526 27.6987 10.3158 27.5596 10.3158C27.4177 10.3158 27.3048 10.3526 27.2208 10.4261C27.1394 10.497 27.0987 10.5994 27.0987 10.7334C27.0987 10.8699 27.1394 10.975 27.2208 11.0485C27.3048 11.1194 27.4177 11.1548 27.5596 11.1548ZM26.9844 12.2933C26.9844 12.4246 27.0396 12.5217 27.1499 12.5847C27.2602 12.6504 27.3981 12.6832 27.5635 12.6832C27.7263 12.6832 27.8563 12.6478 27.9535 12.5769C28.0533 12.506 28.1032 12.4114 28.1032 12.2933C28.1032 12.2092 28.069 12.1357 28.0007 12.0727C27.9325 12.0123 27.8064 11.9768 27.6226 11.9663C27.4781 11.9558 27.3534 11.9427 27.2484 11.9269C27.1407 11.9847 27.0698 12.0464 27.0357 12.1121C27.0015 12.1803 26.9844 12.2407 26.9844 12.2933Z" fill="white"/>
<path d="M29.6109 12.0884C29.4481 12.0884 29.3128 12.0608 29.2052 12.0057C29.0975 11.9505 29.0174 11.877 28.9649 11.7851C28.9123 11.6932 28.8861 11.5934 28.8861 11.4857C28.8861 11.2861 28.9622 11.1325 29.1146 11.0249C29.2669 10.9172 29.4743 10.8634 29.7369 10.8634H30.2648V10.8397C30.2648 10.669 30.2201 10.5403 30.1308 10.4537C30.0416 10.3644 29.9221 10.3198 29.7724 10.3198C29.6437 10.3198 29.5321 10.3526 29.4376 10.4182C29.3456 10.4813 29.2879 10.5745 29.2642 10.6979H28.9255C28.9386 10.5561 28.9859 10.4366 29.0673 10.3394C29.1513 10.2423 29.255 10.1688 29.3785 10.1189C29.5019 10.0663 29.6332 10.0401 29.7724 10.0401C30.0455 10.0401 30.2503 10.1136 30.3869 10.2607C30.5261 10.4051 30.5957 10.5981 30.5957 10.8397V12.0411H30.3002L30.2805 11.6906C30.2254 11.8009 30.144 11.8954 30.0363 11.9742C29.9313 12.0503 29.7895 12.0884 29.6109 12.0884ZM29.6621 11.8087C29.7881 11.8087 29.8958 11.7759 29.9851 11.7103C30.077 11.6446 30.1466 11.5593 30.1939 11.4542C30.2411 11.3492 30.2648 11.2389 30.2648 11.1233V11.1194H29.7645C29.5702 11.1194 29.4323 11.1535 29.3509 11.2218C29.2721 11.2875 29.2327 11.3702 29.2327 11.47C29.2327 11.5724 29.2695 11.6551 29.343 11.7181C29.4192 11.7785 29.5255 11.8087 29.6621 11.8087Z" fill="white"/>
<path d="M31.0921 12.0411V10.0873H31.3914L31.4111 10.4379C31.4741 10.3145 31.5647 10.2173 31.6829 10.1464C31.8011 10.0755 31.935 10.0401 32.0847 10.0401C32.3158 10.0401 32.4996 10.111 32.6362 10.2528C32.7754 10.392 32.845 10.6073 32.845 10.8988V12.0411H32.5141V10.9343C32.5141 10.5272 32.346 10.3237 32.0099 10.3237C31.8418 10.3237 31.7013 10.3854 31.5884 10.5088C31.4781 10.6296 31.4229 10.803 31.4229 11.0288V12.0411H31.0921Z" fill="white"/>
<path d="M33.5472 9.65404C33.4815 9.65404 33.4264 9.63303 33.3817 9.59102C33.3397 9.54637 33.3187 9.49123 33.3187 9.42557C33.3187 9.36255 33.3397 9.31003 33.3817 9.26801C33.4264 9.22599 33.4815 9.20498 33.5472 9.20498C33.6102 9.20498 33.664 9.22599 33.7087 9.26801C33.7533 9.31003 33.7756 9.36255 33.7756 9.42557C33.7756 9.49123 33.7533 9.54637 33.7087 9.59102C33.664 9.63303 33.6102 9.65404 33.5472 9.65404ZM33.3817 12.0411V10.0873H33.7126V12.0411H33.3817Z" fill="white"/>
<path d="M34.1548 12.0411V11.7693L35.242 10.3631H34.1745V10.0873H35.6123V10.3591L34.5251 11.7654H35.632V12.0411H34.1548Z" fill="white"/>
<path d="M36.7198 12.0884C36.5569 12.0884 36.4217 12.0608 36.314 12.0057C36.2064 11.9505 36.1263 11.877 36.0737 11.7851C36.0212 11.6932 35.995 11.5934 35.995 11.4857C35.995 11.2861 36.0711 11.1325 36.2234 11.0249C36.3757 10.9172 36.5832 10.8634 36.8458 10.8634H37.3736V10.8397C37.3736 10.669 37.329 10.5403 37.2397 10.4537C37.1504 10.3644 37.0309 10.3198 36.8813 10.3198C36.7526 10.3198 36.641 10.3526 36.5464 10.4182C36.4545 10.4813 36.3967 10.5745 36.3731 10.6979H36.0343C36.0475 10.5561 36.0947 10.4366 36.1762 10.3394C36.2602 10.2423 36.3639 10.1688 36.4873 10.1189C36.6108 10.0663 36.7421 10.0401 36.8813 10.0401C37.1544 10.0401 37.3592 10.1136 37.4958 10.2607C37.6349 10.4051 37.7045 10.5981 37.7045 10.8397V12.0411H37.4091L37.3894 11.6906C37.3343 11.8009 37.2528 11.8954 37.1452 11.9742C37.0401 12.0503 36.8983 12.0884 36.7198 12.0884ZM36.771 11.8087C36.897 11.8087 37.0047 11.7759 37.094 11.7103C37.1859 11.6446 37.2555 11.5593 37.3027 11.4542C37.35 11.3492 37.3736 11.2389 37.3736 11.1233V11.1194H36.8734C36.679 11.1194 36.5412 11.1535 36.4598 11.2218C36.381 11.2875 36.3416 11.3702 36.3416 11.47C36.3416 11.5724 36.3784 11.6551 36.4519 11.7181C36.5281 11.7785 36.6344 11.8087 36.771 11.8087Z" fill="white"/>
<path d="M38.9191 12.0411C38.7406 12.0411 38.6001 11.9978 38.4976 11.9112C38.3952 11.8245 38.344 11.6682 38.344 11.4424V10.367H38.0053V10.0873H38.344L38.3874 9.61859H38.6749V10.0873H39.25V10.367H38.6749V11.4424C38.6749 11.5658 38.6999 11.6499 38.7498 11.6945C38.7996 11.7365 38.8876 11.7575 39.0137 11.7575H39.2185V12.0411H38.9191Z" fill="white"/>
<path d="M39.8713 9.65404C39.8056 9.65404 39.7505 9.63303 39.7058 9.59102C39.6638 9.54637 39.6428 9.49123 39.6428 9.42557C39.6428 9.36255 39.6638 9.31003 39.7058 9.26801C39.7505 9.22599 39.8056 9.20498 39.8713 9.20498C39.9343 9.20498 39.9882 9.22599 40.0328 9.26801C40.0774 9.31003 40.0998 9.36255 40.0998 9.42557C40.0998 9.49123 40.0774 9.54637 40.0328 9.59102C39.9882 9.63303 39.9343 9.65404 39.8713 9.65404ZM39.7058 12.0411V10.0873H40.0367V12.0411H39.7058Z" fill="white"/>
<path d="M41.5031 12.0884C41.3193 12.0884 41.1538 12.0464 41.0068 11.9624C40.8597 11.8783 40.7429 11.7602 40.6562 11.6078C40.5722 11.4529 40.5301 11.2717 40.5301 11.0642C40.5301 10.8568 40.5735 10.6769 40.6601 10.5246C40.7468 10.3696 40.8637 10.2502 41.0107 10.1661C41.1604 10.0821 41.3272 10.0401 41.511 10.0401C41.6948 10.0401 41.8602 10.0821 42.0073 10.1661C42.1544 10.2502 42.2699 10.3696 42.354 10.5246C42.4406 10.6769 42.4839 10.8568 42.4839 11.0642C42.4839 11.2717 42.4406 11.4529 42.354 11.6078C42.2673 11.7602 42.1491 11.8783 41.9994 11.9624C41.8524 12.0464 41.6869 12.0884 41.5031 12.0884ZM41.5031 11.8048C41.616 11.8048 41.7211 11.7772 41.8182 11.7221C41.9154 11.6669 41.9942 11.5842 42.0546 11.4739C42.115 11.3636 42.1452 11.2271 42.1452 11.0642C42.1452 10.9014 42.115 10.7649 42.0546 10.6546C41.9968 10.5443 41.9193 10.4616 41.8222 10.4064C41.725 10.3513 41.6213 10.3237 41.511 10.3237C41.3981 10.3237 41.293 10.3513 41.1959 10.4064C41.0987 10.4616 41.0199 10.5443 40.9595 10.6546C40.8991 10.7649 40.8689 10.9014 40.8689 11.0642C40.8689 11.2271 40.8991 11.3636 40.9595 11.4739C41.0199 11.5842 41.0974 11.6669 41.1919 11.7221C41.2891 11.7772 41.3928 11.8048 41.5031 11.8048Z" fill="white"/>
<path d="M42.944 12.0411V10.0873H43.2434L43.2631 10.4379C43.3261 10.3145 43.4167 10.2173 43.5349 10.1464C43.6531 10.0755 43.787 10.0401 43.9367 10.0401C44.1678 10.0401 44.3516 10.111 44.4882 10.2528C44.6273 10.392 44.6969 10.6073 44.6969 10.8988V12.0411H44.366V10.9343C44.366 10.5272 44.198 10.3237 43.8618 10.3237C43.6938 10.3237 43.5533 10.3854 43.4403 10.5088C43.3301 10.6296 43.2749 10.803 43.2749 11.0288V12.0411H42.944Z" fill="white"/>
<rect x="46.7977" y="10.0986" width="1.92739" height="1.92739" rx="0.5" fill="white"/>
<rect x="17.011" y="1.04736" width="2.05121" height="3.96924" fill="white"/>
<rect x="17.011" y="5.0166" width="2.05121" height="3.96924" fill="white"/>
<rect x="17.011" y="8.98584" width="2.05121" height="3.96924" fill="white"/>
<path d="M7.10538 12.9551V7.43021L4.18904 5.74421V7.13532C4.18904 7.41957 3.95861 7.64999 3.67437 7.64999C3.39012 7.64999 3.1597 7.41957 3.1597 7.13532V5.14912L2.27489 4.63759V9.48317C2.27489 9.70457 2.32773 9.90584 2.43339 10.087C2.53906 10.2681 2.6875 10.414 2.8787 10.5247L5.18917 11.8533V9.53579C5.18917 9.25154 5.41959 9.02112 5.70384 9.02112C5.98808 9.02112 6.21851 9.25154 6.21851 9.53579V12.4451L7.10538 12.9551Z" fill="white"/>
<path d="M12.5397 10.5247C12.7309 10.414 12.8793 10.2681 12.985 10.087C13.0906 9.90584 13.1435 9.70457 13.1435 9.48317V4.63759L8.313 7.43021V12.9551L9.20079 12.4446V8.17341C9.20079 7.88917 9.43122 7.65874 9.71546 7.65874C9.99971 7.65874 10.2301 7.88917 10.2301 8.17341V11.8527L11.2293 11.2782V9.45113C11.2293 9.16689 11.4598 8.93646 11.744 8.93646C12.0282 8.93646 12.2587 9.16689 12.2587 9.45113V10.6863L12.5397 10.5247Z" fill="white"/>
<path fill-rule="evenodd" clip-rule="evenodd" d="M8.313 1.21097L12.4944 3.61112L7.70919 6.38864L2.9089 3.62621L7.10538 1.21097C7.29658 1.10027 7.49785 1.04492 7.70919 1.04492C7.92052 1.04492 8.12179 1.10027 8.313 1.21097ZM7.93216 2.80224L9.34442 3.61288C9.39455 3.64166 9.39473 3.71392 9.34473 3.74294L7.74947 4.6689C7.72625 4.68238 7.6976 4.68243 7.67432 4.66904L6.07422 3.74822C6.02404 3.71934 6.02404 3.64694 6.07421 3.61806L7.49171 2.80224C7.56145 2.76186 7.63486 2.74168 7.71194 2.74168C7.78902 2.74168 7.86242 2.76186 7.93216 2.80224Z" fill="white"/>
</svg>
